<svg width="500" height="248" viewBox="0 0 500 248" fill="none" xmlns="http://www.w3.org/2000/svg">
<rect width="500" height="248" fill="url(#paint0_radial_706_28)"/>
<mask id="mask0_706_28" style="mask-type:alpha" maskUnits="userSpaceOnUse" x="0" y="0" width="500" height="248">
<rect width="500" height="248" fill="#C4C4C4"/>
</mask>
<g mask="url(#mask0_706_28)">
<g filter="url(#filter0_d_706_28)">
<path d="M103.635 125.652H96.647V134.811C91.4535 127.635 85.1269 124.424 76.3451 124.424C61.2368 124.424 50 136.133 50 151.714C50 166.822 61.709 178.531 76.9117 178.531C86.26 178.531 92.5866 174.754 96.647 166.822V170.316C96.647 175.415 96.0804 178.625 94.5696 181.836C91.8312 187.785 85.6934 191.184 77.6671 191.184C71.9071 191.184 67.469 189.485 63.7863 185.991C61.9922 184.385 60.8591 182.78 58.6873 178.909H51.8885C55.6656 190.995 64.825 197.605 77.856 197.605C86.8265 197.605 94.3807 194.206 98.8188 188.351C102.313 183.63 103.635 178.153 103.635 168.05V125.652ZM76.8173 130.845C87.9597 130.845 96.647 139.627 96.647 150.864C96.647 162.951 88.1485 172.11 76.9117 172.11C65.5805 172.11 57.082 163.139 57.082 151.147C57.082 139.344 65.3916 130.845 76.8173 130.845Z" fill="white"/>
<path d="M116.949 177.303H123.936V147.181C123.842 137.833 129.035 132.073 138.572 131.317V124.424C131.113 124.802 126.675 127.352 123.936 133.017V125.652H116.949V177.303Z" fill="white"/>
<path d="M194.851 125.652H187.863V134.811C182.67 127.635 176.437 124.424 167.467 124.424C151.981 124.424 140.272 136.133 140.272 151.619C140.272 167.105 152.075 178.531 168.033 178.531C176.815 178.531 182.292 175.698 187.863 168.238V177.303H194.851V125.652ZM167.656 130.845C179.081 130.845 187.863 139.721 187.863 151.242C187.863 163.045 179.176 172.11 168.033 172.11C156.324 172.11 147.354 162.951 147.354 151.147C147.354 139.91 156.419 130.845 167.656 130.845Z" fill="white"/>
<path d="M206.748 177.303H213.736V147.181C213.736 136.889 218.929 130.845 227.617 130.845C231.866 130.845 235.832 132.545 238.381 135.567C240.648 138.211 241.592 141.799 241.592 147.181V177.303H248.58V147.37C248.58 142.365 249.335 139.249 251.035 136.7C253.49 133.017 257.833 130.845 262.744 130.845C267.276 130.845 271.242 132.639 273.603 135.756C275.491 138.305 276.436 142.177 276.436 147.37V177.303H283.423V146.615C283.423 139.816 282.196 135.472 279.268 131.695C275.68 127.068 269.826 124.424 263.121 124.424C255.095 124.424 249.524 127.446 245.18 134.339C241.12 127.352 236.115 124.424 228.278 124.424C221.762 124.424 217.796 126.407 213.736 131.601V125.652H206.748V177.303Z" fill="white"/>
<path d="M295.321 177.303H302.308V147.181C302.308 136.889 307.502 130.845 316.189 130.845C320.438 130.845 324.404 132.545 326.954 135.567C329.22 138.211 330.164 141.799 330.164 147.181V177.303H337.152V147.37C337.152 142.365 337.907 139.249 339.607 136.7C342.062 133.017 346.406 130.845 351.316 130.845C355.849 130.845 359.815 132.639 362.175 135.756C364.064 138.305 365.008 142.177 365.008 147.37V177.303H371.996V146.615C371.996 139.816 370.768 135.472 367.841 131.695C364.253 127.068 358.398 124.424 351.694 124.424C343.668 124.424 338.096 127.446 333.753 134.339C329.692 127.352 324.688 124.424 316.85 124.424C310.335 124.424 306.369 126.407 302.308 131.601V125.652H295.321V177.303Z" fill="white"/>
<path d="M355.31 86.5457H370.318L392.928 116.512L438.2 55.9697L450 50L447.848 62.126L399.844 128.131V177.304H385.805V128.131L355.31 86.5457Z" fill="white"/>
</g>
</g>
<defs>
<filter id="filter0_d_706_28" x="-100" y="-96" width="700" height="447.605" filterUnits="userSpaceOnUse" color-interpolation-filters="sRGB">
<feFlood flood-opacity="0" result="BackgroundImageFix"/>
<feColorMatrix in="SourceAlpha" type="matrix" values="0 0 0 0 0 0 0 0 0 0 0 0 0 0 0 0 0 0 127 0" result="hardAlpha"/>
<feOffset dy="4"/>
<feGaussianBlur stdDeviation="75"/>
<feComposite in2="hardAlpha" operator="out"/>
<feColorMatrix type="matrix" values="0 0 0 0 0 0 0 0 0 0 0 0 0 0 0 0 0 0 0.5 0"/>
<feBlend mode="normal" in2="BackgroundImageFix" result="effect1_dropShadow_706_28"/>
<feBlend mode="normal" in="SourceGraphic" in2="effect1_dropShadow_706_28" result="shape"/>
</filter>
<radialGradient id="paint0_radial_706_28" cx="0" cy="0" r="1" gradientUnits="userSpaceOnUse" gradientTransform="rotate(26.3814) scale(558.125 1125.25)">
<stop stop-color="#7ACBE3"/>
<stop offset="1" stop-color="#009DCA"/>
</radialGradient>
</defs>
</svg>
