<?xml version="1.0" encoding="UTF-8"?><svg id="Layer_2" xmlns="http://www.w3.org/2000/svg" xmlns:xlink="http://www.w3.org/1999/xlink" viewBox="0 0 423.61 156.32"><defs><style>.cls-1{fill:url(#linear-gradient);}.cls-2{fill:#7acbe3;}</style><linearGradient id="linear-gradient" x1="-372.73" y1="737.41" x2="-348.01" y2="770.16" gradientTransform="translate(1408.47 2170.42) scale(2.83 -2.83)" gradientUnits="userSpaceOnUse"><stop offset="0" stop-color="#009dca"/><stop offset="1" stop-color="#fff"/></linearGradient></defs><g id="svg8"><path id="path965" class="cls-2" d="m56.8,80.12h-7.4v9.7c-5.5-7.6-12.2-11-21.5-11-16,0-27.9,12.4-27.9,28.9s12.4,28.4,28.5,28.4c9.9,0,16.6-4,20.9-12.4v3.7c0,5.4-.6,8.8-2.2,12.2-2.9,6.3-9.4,9.9-17.9,9.9-6.1,0-10.8-1.8-14.7-5.5-1.9-1.7-3.1-3.4-5.4-7.5H2c4,12.8,13.7,19.8,27.5,19.8,9.5,0,17.5-3.6,22.2-9.8,3.7-5,5.1-10.8,5.1-21.5v-44.9Zm-28.4,5.5c11.8,0,21,9.3,21,21.2,0,12.8-9,22.5-20.9,22.5s-21-9.5-21-22.2,8.8-21.5,20.9-21.5Z"/><path id="path967" class="cls-2" d="m69.9,134.82h7.4v-31.9c-.1-9.9,5.4-16,15.5-16.8v-7.3c-7.9.4-12.6,3.1-15.5,9.1v-7.8h-7.4v54.7Z"/><path id="path969" class="cls-2" d="m155.4,80.12h-7.4v9.7c-5.5-7.6-12.1-11-21.6-11-16.4,0-28.8,12.4-28.8,28.8s12.5,28.5,29.4,28.5c9.3,0,15.1-3,21-10.9v9.6h7.4v-54.7Zm-28.8,5.5c12.1,0,21.4,9.4,21.4,21.6s-9.2,22.1-21,22.1c-12.4,0-21.9-9.7-21.9-22.2s9.6-21.5,21.5-21.5h0Z"/><path id="path971" class="cls-2" d="m168,134.82h7.4v-31.9c0-10.9,5.5-17.3,14.7-17.3,4.5,0,8.7,1.8,11.4,5,2.4,2.8,3.4,6.6,3.4,12.3v31.9h7.4v-31.7c0-5.3.8-8.6,2.6-11.3,2.6-3.9,7.2-6.2,12.4-6.2,4.8,0,9,1.9,11.5,5.2,2,2.7,3,6.8,3,12.3v31.7h7.4v-32.5c0-7.2-1.3-11.8-4.4-15.8-3.8-4.9-10-7.7-17.1-7.7-8.5,0-14.4,3.2-19,10.5-4.3-7.4-9.6-10.5-17.9-10.5-6.9,0-11.1,2.1-15.4,7.6v-6.3h-7.4v54.7Z"/><path id="path973" class="cls-2" d="m261.8,134.82h7.4v-31.9c0-10.9,5.5-17.3,14.7-17.3,4.5,0,8.7,1.8,11.4,5,2.4,2.8,3.4,6.6,3.4,12.3v31.9h7.4v-31.7c0-5.3.8-8.6,2.6-11.3,2.6-3.9,7.2-6.2,12.4-6.2,4.8,0,9,1.9,11.5,5.2,2,2.7,3,6.8,3,12.3v31.7h7.4v-32.5c0-7.2-1.3-11.8-4.4-15.8-3.8-4.9-10-7.7-17.1-7.7-8.5,0-14.4,3.2-19,10.5-4.3-7.4-9.6-10.5-17.9-10.5-6.9,0-11.1,2.1-15.4,7.6v-6.3h-7.4v54.7Z"/><path id="path895" class="cls-1" d="m323.33,38.7h15.89l23.94,31.74L411.11,6.32l12.5-6.32-2.28,12.84-50.84,69.9v52.08h-14.87v-52.08l-32.29-44.04Z"/></g></svg>