<svg xmlns="http://www.w3.org/2000/svg" xmlns:xlink="http://www.w3.org/1999/xlink" viewBox="0 0 512 512" width="512" height="512" style="width: 100%; height: 100%; transform: translate3d(0,0,0);" preserveAspectRatio="xMidYMid meet"><defs><clipPath id="__lottie_element_2"><rect width="512" height="512" x="0" y="0"></rect></clipPath><radialGradient id="__lottie_element_10" spreadMethod="pad" gradientUnits="userSpaceOnUse" cx="-69.53299713134766" cy="-144.05599975585938" r="156.71366570141768" fx="-69.53299713134766" fy="-144.05599975585938"><stop offset="0%" stop-color="rgb(255,255,176)"></stop><stop offset="45%" stop-color="rgb(245,233,155)"></stop><stop offset="64%" stop-color="rgb(234,210,133)"></stop><stop offset="82%" stop-color="rgb(233,207,128)"></stop><stop offset="100%" stop-color="rgb(231,204,122)"></stop></radialGradient><linearGradient id="__lottie_element_32" spreadMethod="pad" gradientUnits="userSpaceOnUse" x1="15.467000007629395" y1="95" x2="26.85300064086914" y2="28.96500015258789"><stop offset="0%" stop-color="rgb(255,242,54)"></stop><stop offset="50%" stop-color="rgb(253,198,60)"></stop><stop offset="100%" stop-color="rgb(252,154,67)"></stop></linearGradient><radialGradient id="__lottie_element_36" spreadMethod="pad" gradientUnits="userSpaceOnUse" cx="18.466999053955078" cy="140.41900634765625" r="295.8115008885977" fx="18.466999053955078" fy="140.41900634765625"><stop offset="22%" stop-color="rgb(235,251,216)"></stop><stop offset="34%" stop-color="rgb(211,251,215)"></stop><stop offset="47%" stop-color="rgb(187,251,214)"></stop><stop offset="66%" stop-color="rgb(149,249,233)"></stop><stop offset="100%" stop-color="rgb(111,246,251)"></stop></radialGradient></defs><g clip-path="url(#__lottie_element_2)"><g style="display: block;" transform="matrix(1,0,0,1,256,261)" opacity="1"><g opacity="1" transform="matrix(1,0,0,1,0,0)"><path fill="rgb(255,255,255)" fill-opacity="1" d=" M140.05499267578125,51.941001892089844 C167.93699645996094,54.76499938964844 188.40899658203125,68.52899932861328 203.3159942626953,84.98400115966797 C211.75399780273438,94.2979965209961 231.52499389648438,132.75799560546875 192.98599243164062,164.33299255371094 C149.85800170898438,199.66799926757812 67.552001953125,216.00799560546875 -26.187000274658203,210.61300659179688 C-119.9260025024414,205.21800231933594 -176.875,164.8179931640625 -187.36099243164062,127.39399719238281 C-196.52000427246094,94.7040023803711 -175.91000366210938,82.6050033569336 -169.63900756835938,78.54299926757812 C-160.38299560546875,72.5479965209961 -145.4739990234375,66.41100311279297 -116.18000030517578,62.52899932861328 C-40.499000549316406,52.499000549316406 85.94599914550781,46.46200180053711 140.05499267578125,51.941001892089844z"></path></g><g opacity="1" transform="matrix(1,0,0,1,0,0)"><path fill="url(#__lottie_element_36)" fill-opacity="1" d=" M-169.63900756835938,78.54299926757812 C-169.63900756835938,78.54299926757812 -196.52000427246094,94.7040023803711 -187.36099243164062,127.39399719238281 C-176.875,164.8179931640625 -119.9260025024414,205.21800231933594 -26.187000274658203,210.61300659179688 C67.552001953125,216.00799560546875 149.85800170898438,199.66799926757812 192.98599243164062,164.33299255371094 C231.52499389648438,132.75799560546875 211.09800720214844,91.9020004272461 203.3159942626953,84.98400115966797 C203.3159942626953,84.98400115966797 211.48599243164062,114.13200378417969 183.86000061035156,116.91100311279297 C162.80499267578125,119.02899932861328 149.46299743652344,105.13400268554688 130.82000732421875,111.05899810791016 C114.14700317382812,116.35800170898438 114.83699798583984,131.4969940185547 80.37799835205078,130.8509979248047 C36.43899917602539,130.02699279785156 -7.002999782562256,105.4020004272461 -50.50199890136719,105.09500122070312 C-103.56199645996094,104.72000122070312 -181.25999450683594,130.4459991455078 -169.63900756835938,78.54299926757812z"></path></g><g opacity="0.6" transform="matrix(0.5,0,0,0.5,7,-36)"><path fill="rgb(255,255,255)" fill-opacity="1" d=" M-311.6059875488281,421.3370056152344 C-312,425.11199951171875 -299,426 -299,422.4469909667969 C-299,418.8940124511719 -311.25799560546875,418 -311.6059875488281,421.3370056152344z M-330.3030090332031,411.1709899902344 C-331,415.8890075683594 -308,417 -308,412.5589904785156 C-308,408.1180114746094 -329.68701171875,407 -330.3030090332031,411.1709899902344z"></path></g><g opacity="0.6" transform="matrix(0.5,0,0,0.5,7,-36)"><path fill="rgb(255,255,255)" fill-opacity="1" d=" M-247.3979949951172,456 C-232.25399780273438,461.9490051269531 -207.49899291992188,470.1239929199219 -195.2100067138672,472.2489929199219 C-186.92100524902344,473.52398681640625 -173,479 -161,482.02301025390625 C-134.65699768066406,488.6600036621094 -109.66999816894531,491.68499755859375 -94.53199768066406,493.447998046875 C-85.5,494.5 -60.040000915527344,496.6000061035156 -48.6619987487793,496.97198486328125 C-32.5,497.5 1.3700000047683716,496.62200927734375 14.428999900817871,496.62200927734375 C28.009000778198242,496.62200927734375 50.96500015258789,495.62200927734375 73.33300018310547,495.1969909667969 C94.01699829101562,494.8039855957031 117.31600189208984,490.2969970703125 141.60299682617188,489.4469909667969 C160.718994140625,488.77801513671875 166.78500366210938,486.11700439453125 176.91099548339844,485.0480041503906 C184.95899963378906,484.197998046875 191.0449981689453,482.197998046875 196.36900329589844,481.3479919433594 C202.5679931640625,480.072998046875 214.7689971923828,476.37298583984375 223,471.6990051269531 C212.2989959716797,475.9490051269531 156.4720001220703,486.572998046875 140.93099975585938,487.4230041503906 C129.1219940185547,488.0690002441406 120.93199920654297,487.572998046875 95.0739974975586,489.27301025390625 C74.58799743652344,490.6199951171875 47.672000885009766,492.99798583984375 21.641000747680664,490.87298583984375 C6.564000129699707,489.6419982910156 -37.143001556396484,493.6889953613281 -66.09100341796875,491.447998046875 C-130,486.5 -151,483 -186.31300354003906,472.32501220703125 C-205.16200256347656,466.62701416015625 -225.5,465 -247.3979949951172,456z"></path></g><g opacity="1" transform="matrix(0.5,0,0,0.5,7,-36)"><path stroke-linecap="round" stroke-linejoin="round" fill-opacity="0" stroke="rgb(134,232,209)" stroke-opacity="1" stroke-width="12" d=" M-46.540000915527344,494.5169982910156 C-41.5989990234375,495.2860107421875 -31,495 -21.429000854492188,494.5830078125"></path></g><g opacity="1" transform="matrix(0.5,0,0,0.5,7,-36)"><path stroke-linecap="round" stroke-linejoin="round" fill-opacity="0" stroke="rgb(134,232,209)" stroke-opacity="1" stroke-width="12" d=" M90.01000213623047,489.4389953613281 C101.90699768066406,489.14801025390625 111.98500061035156,488.3290100097656 124.55699920654297,487.34698486328125"></path></g><g opacity="1" transform="matrix(0.5,0,0,0.5,7,-36)"><path stroke-linecap="round" stroke-linejoin="round" fill-opacity="0" stroke="rgb(134,232,209)" stroke-opacity="1" stroke-width="12" d=" M-222.28700256347656,464.2070007324219 C-210,469.5 -196.5,474 -179.83700561523438,476.8819885253906"></path></g><g opacity="1" transform="matrix(1,0,0,1,0,0)"><path stroke-linecap="round" stroke-linejoin="round" fill-opacity="0" stroke="rgb(11,191,214)" stroke-opacity="1" stroke-width="8" d=" M140.05499267578125,51.941001892089844 C167.93699645996094,54.76499938964844 188.40899658203125,68.52899932861328 203.3159942626953,84.98400115966797 C211.75399780273438,94.2979965209961 231.52499389648438,132.75799560546875 192.98599243164062,164.33299255371094 C149.85800170898438,199.66799926757812 67.552001953125,216.00799560546875 -26.187000274658203,210.61300659179688 C-119.9260025024414,205.21800231933594 -176.875,164.8179931640625 -187.36099243164062,127.39399719238281 C-196.52000427246094,94.7040023803711 -175.91000366210938,82.6050033569336 -169.63900756835938,78.54299926757812 C-160.38299560546875,72.5479965209961 -145.4739990234375,66.41100311279297 -116.18000030517578,62.52899932861328 C-40.499000549316406,52.499000549316406 85.94599914550781,46.46200180053711 140.05499267578125,51.941001892089844z"></path></g><g opacity="1" transform="matrix(1,0,0,1,0,0)"><path fill="rgb(255,255,255)" fill-opacity="1" d=" M146.24099731445312,114.14299774169922 C146.24099731445312,115.1259994506836 144.56900024414062,115.9219970703125 142.5070037841797,115.9219970703125 C140.44500732421875,115.9219970703125 138.7740020751953,115.1259994506836 138.7740020751953,114.14299774169922 C138.7740020751953,113.16000366210938 140.44500732421875,112.36299896240234 142.5070037841797,112.36299896240234 C144.56900024414062,112.36299896240234 146.24099731445312,113.16000366210938 146.24099731445312,114.14299774169922z"></path></g><g opacity="1" transform="matrix(1,0,0,1,0,0)"><path fill="rgb(255,255,255)" fill-opacity="1" d=" M-40.387001037597656,110.99199676513672 C-40.387001037597656,112.72599792480469 -43.279998779296875,114.13200378417969 -46.847999572753906,114.13200378417969 C-50.41600036621094,114.13200378417969 -53.30799865722656,112.72599792480469 -53.30799865722656,110.99199676513672 C-53.30799865722656,109.25800323486328 -50.41600036621094,107.85199737548828 -46.847999572753906,107.85199737548828 C-43.279998779296875,107.85199737548828 -40.387001037597656,109.25800323486328 -40.387001037597656,110.99199676513672z"></path></g><g opacity="1" transform="matrix(1,0,0,1,0,0)"><path fill="rgb(255,255,255)" fill-opacity="1" d=" M-58.54999923706055,109.21199798583984 C-58.54999923706055,110.19499969482422 -60.22100067138672,110.99199676513672 -62.28300094604492,110.99199676513672 C-64.34500122070312,110.99199676513672 -66.01599884033203,110.19499969482422 -66.01599884033203,109.21199798583984 C-66.01599884033203,108.22899627685547 -64.34500122070312,107.43199920654297 -62.28300094604492,107.43199920654297 C-60.22100067138672,107.43199920654297 -58.54999923706055,108.22899627685547 -58.54999923706055,109.21199798583984z"></path></g><g opacity="1" transform="matrix(1,0,0,1,1,0)"><path fill="rgb(255,255,255)" fill-opacity="1" d=" M-38.04999923706055,101.46600341796875 C-38.04999923706055,102.03700256347656 -39.72100067138672,102.5 -41.78300094604492,102.5 C-43.845001220703125,102.5 -45.51599884033203,102.03700256347656 -45.51599884033203,101.46600341796875 C-45.51599884033203,100.8949966430664 -43.845001220703125,100.43199920654297 -41.78300094604492,100.43199920654297 C-39.72100067138672,100.43199920654297 -38.04999923706055,100.8949966430664 -38.04999923706055,101.46600341796875z"></path></g><g opacity="0" transform="matrix(1,0,0,1,1,0)"><path fill="rgb(255,255,255)" fill-opacity="1" d=" M123.75,144.64599609375 C123.75,145.70199584960938 121.21199798583984,146.55799865722656 118.08200073242188,146.55799865722656 C114.9520034790039,146.55799865722656 112.41400146484375,145.70199584960938 112.41400146484375,144.64599609375 C112.41400146484375,143.58999633789062 114.9520034790039,142.73399353027344 118.08200073242188,142.73399353027344 C121.21199798583984,142.73399353027344 123.75,143.58999633789062 123.75,144.64599609375z"></path></g><g opacity="1" transform="matrix(1,0,0,1,1,0)"><path fill="rgb(255,255,255)" fill-opacity="1" d=" M108.37300109863281,123.49199676513672 C108.37300109863281,124.18699645996094 106.7040023803711,124.75 104.64399719238281,124.75 C102.58399963378906,124.75 100.91400146484375,124.18699645996094 100.91400146484375,123.49199676513672 C100.91400146484375,122.7969970703125 102.58399963378906,122.23400115966797 104.64399719238281,122.23400115966797 C106.7040023803711,122.23400115966797 108.37300109863281,122.7969970703125 108.37300109863281,123.49199676513672z"></path></g></g><g style="display: block;" transform="matrix(1,0,0,1,256,261)" opacity="1"><g opacity="1" transform="matrix(1,0,0,1,0,0)"><path fill="url(#__lottie_element_32)" fill-opacity="1" d=" M-151.8459930419922,91.49099731445312 C-163.59100341796875,79.66699981689453 -137.40899658203125,43.8120002746582 -82.11000061035156,24.81800079345703 C-26.81100082397461,5.823999881744385 68.16000366210938,-2.434999942779541 128.4459991455078,24.81800079345703 C188.73199462890625,52.07099914550781 195.6320037841797,84.41500091552734 187.0070037841797,96.9219970703125 C178.3820037841797,109.42900085449219 151.9239959716797,97.77400207519531 136.61300659179688,97.8489990234375 C122.70500183105469,97.91699981689453 121.02300262451172,107.7040023803711 97.3030014038086,112.87899780273438 C73.58300018310547,118.05400085449219 37.44300079345703,105.98100280761719 1.2999999523162842,98.7750015258789 C-33.30699920654297,91.875 -55.05799865722656,89.66600036621094 -104.96199798583984,94.83000183105469 C-133.05599975585938,97.73699951171875 -144.3090057373047,99.0780029296875 -151.8459930419922,91.49099731445312z"></path></g><g opacity="0.3" transform="matrix(1,0,0,1,0,0)"><path fill="rgb(93,43,0)" fill-opacity="1" d=" M-11.093999862670898,50.5890007019043 C-4.1620001792907715,32.74100112915039 14.321000099182129,42.518001556396484 29.729000091552734,35.18000030517578 C48.606998443603516,26.190000534057617 76.46399688720703,24.065000534057617 97.54100036621094,31.802000045776367 C115.81099700927734,38.50899887084961 135.4669952392578,41.35300064086914 148.5260009765625,36.058998107910156 C138.29100036621094,26.530000686645508 83.7020034790039,-5.118000030517578 -36.73400115966797,13.388999938964844 C-47.29800033569336,15.01200008392334 -59.78300094604492,23.354000091552734 -41.665000915527344,27.52899932861328 C-23.547000885009766,31.70400047302246 -16.365999221801758,64.16200256347656 -11.093999862670898,50.5890007019043z"></path></g><g opacity="0.2" transform="matrix(1,0,0,1,0,0)"><path fill="rgb(93,43,0)" fill-opacity="1" d=" M29.729999542236328,35.178001403808594 C14.76200008392334,42.76499938964844 -3.680000066757202,32.26499938964844 -11.09000015258789,50.5880012512207 C-13.751999855041504,57.17100143432617 -20.12299919128418,49.25 -21.209999084472656,46.22800064086914 C-22.297000885009766,43.20600128173828 -25.208999633789062,39.26300048828125 -22.757999420166016,36.54999923706055 C-13.38599967956543,26.177000045776367 14.776000022888184,21.04800033569336 40.88999938964844,19.05299949645996 C59.9010009765625,17.60099983215332 82.79100036621094,20.70599937438965 82.43800354003906,24.41200065612793 C82.11000061035156,27.856000900268555 64.55000305175781,26.69499969482422 56.584999084472656,27.764999389648438 C44.76100158691406,29.35300064086914 35.52899932861328,32.23899841308594 29.729999542236328,35.178001403808594z"></path></g><g opacity="0.3" transform="matrix(1,0,0,1,0,0)"><path fill="rgb(196,98,0)" fill-opacity="1" d=" M187.00900268554688,96.91899871826172 C178.38400268554688,109.4260025024414 149.48800659179688,98.6510009765625 135.68499755859375,96.91899871826172 C121.88099670410156,95.19599914550781 121.01300048828125,107.66799926757812 97.30400085449219,112.88099670410156 C68.14299774169922,119.29199981689453 18.05900001525879,99.33999633789062 1.2999999523162842,95.99600219726562 C17.670000076293945,99.01599884033203 83.4990005493164,114.2959976196289 105.78800201416016,97.36399841308594 C124.70500183105469,82.99299621582031 129.32200622558594,81.80000305175781 163.08900451660156,84.31099700927734 C187.45599365234375,86.12300109863281 183.9429931640625,68.58000183105469 180.5240020751953,61.98400115966797 C191.79800415039062,76.89900207519531 191.7989959716797,89.97100067138672 187.00900268554688,96.91899871826172z"></path></g></g><g style="display: none;"><g><path stroke-linecap="round" stroke-linejoin="round" fill-opacity="0"></path><path></path></g><g><path></path></g><g><path></path></g><g><path></path></g><g><path></path></g></g><g style="display: block;" transform="matrix(-0.5,0,0,0.5,251.25,213.49949645996094)" opacity="1"><g opacity="1" transform="matrix(1,0,0,1,0,0)"><path stroke-linecap="round" stroke-linejoin="round" fill-opacity="0" stroke="rgb(194,157,92)" stroke-opacity="1" stroke-width="18" d=" M232.69500732421875,292.0119934082031 C226.08999633789062,285.00799560546875 210.86500549316406,286.9209899902344 212.093994140625,296.6709899902344 C203.33900451660156,293.92401123046875 187.87899780273438,291.4169921875 193.71600341796875,302.2659912109375 C184.1929931640625,301.4419860839844 186.44900512695312,300.6839904785156 187.7550048828125,300.9469909667969 C190.5,301.5 203.6280059814453,302.2030029296875 210.38600158691406,303.302001953125 C211.625,304.625 216.25,303.5 218.2429962158203,303.625 C226.625,301.125 239.625,304.5 242.625,301.739013671875 C241.625,301.5 242.5,300.625 241.21499633789062,299.7619934082031 C242.75,297.875 244.8280029296875,297.74200439453125 245.1580047607422,295.8970031738281 C246.125,290.5 241.2969970703125,288.5790100097656 232.69500732421875,292.0119934082031z"></path><path fill="rgb(227,211,158)" fill-opacity="1" d=" M232.69500732421875,292.0119934082031 C226.08999633789062,285.00799560546875 210.86500549316406,286.9209899902344 212.093994140625,296.6709899902344 C203.33900451660156,293.92401123046875 187.87899780273438,291.4169921875 193.71600341796875,302.2659912109375 C184.1929931640625,301.4419860839844 186.44900512695312,300.6839904785156 187.7550048828125,300.9469909667969 C190.5,301.5 203.6280059814453,302.2030029296875 210.38600158691406,303.302001953125 C211.625,304.625 216.25,303.5 218.2429962158203,303.625 C226.625,301.125 239.625,304.5 242.625,301.739013671875 C241.625,301.5 242.5,300.625 241.21499633789062,299.7619934082031 C242.75,297.875 244.8280029296875,297.74200439453125 245.1580047607422,295.8970031738281 C246.125,290.5 241.2969970703125,288.5790100097656 232.69500732421875,292.0119934082031z"></path></g><g opacity="0" transform="matrix(1,0,0,1,0,0)"><path fill="rgb(238,228,196)" fill-opacity="1" d=" M192.29800415039062,312.3370056152344 C187.9810028076172,312.09600830078125 183.7949981689453,316.6080017089844 187.69000244140625,320.4389953613281 C190.76199340820312,323.4599914550781 207.3509979248047,324.4219970703125 209.96200561523438,324.6969909667969 C212.572998046875,324.97198486328125 212.5659942626953,322.8580017089844 211.03700256347656,321.81298828125 C208.42599487304688,320.02801513671875 199.67100524902344,312.7489929199219 192.29800415039062,312.3370056152344z"></path></g><g opacity="0" transform="matrix(1,0,0,1,0,0)"><path fill="rgb(238,228,196)" fill-opacity="1" d=" M204.10699462890625,298.5929870605469 C197.84500122070312,296.52398681640625 189.83999633789062,302.58599853515625 196.29100036621094,309.1780090332031 C202.281005859375,311.375 218.1580047607422,319.5950012207031 219.9459991455078,320.7139892578125 C224.5540008544922,323.5979919433594 224.63600158691406,320.18499755859375 223.3249969482422,317.281005859375 C219.79200744628906,309.4530029296875 211.17300415039062,300.9280090332031 204.10699462890625,298.5929870605469z"></path></g><g opacity="0" transform="matrix(1,0,0,1,0,0)"><path fill="rgb(238,228,196)" fill-opacity="1" d=" M224.53599548339844,291.72698974609375 C220.33200073242188,286.4159851074219 209.94400024414062,290.3529968261719 212.86199951171875,296.94500732421875 C221.156005859375,302.16400146484375 228.8300018310547,313.4429931640625 231.0050048828125,318.7909851074219 C232.23399353027344,321.81201171875 233.8719940185547,320.7130126953125 233.77000427246094,317.6929931640625 C233.61599731445312,313.1610107421875 231.6020050048828,300.65301513671875 224.53599548339844,291.72698974609375z"></path></g><g opacity="0" transform="matrix(1,0,0,1,0,0)"><path fill="rgb(238,228,196)" fill-opacity="1" d=" M233.0019989013672,292.42401123046875 C235.61300659179688,298.0539855957031 237.61000061035156,305.6080017089844 238.53199768066406,311.3760070800781 C238.9499969482422,313.9909973144531 240.60800170898438,314.23699951171875 241.60400390625,311.7879943847656 C243.44700622558594,307.2560119628906 244.25599670410156,296.78900146484375 243.13999938964844,293.5469970703125 C241.91099548339844,289.97601318359375 234.84500122070312,290.22698974609375 233.0019989013672,292.42401123046875z"></path></g></g><g style="display: block;" transform="matrix(0.5,0,0,0.5,260,225)" opacity="1"><g opacity="1" transform="matrix(1,0,0,1,0,0)"><path fill="rgb(255,255,255)" fill-opacity="1" d=" M241,274.5 C233.5,278.5 225,284 210,292 C195,300 163,300.5 153.5,300 C144,299.5 148.53900146484375,332.03900146484375 162.25,332.75 C196,334.5 211.75,320.25 220.75,314.75 C229.75,309.25 235.75,297 261,291.5 C259,287 248.5,270.5 241,274.5z"></path></g><g opacity="1" transform="matrix(1,0,0,1,0,0)"><path fill="rgb(255,255,255)" fill-opacity="1" d=" M-183.54600524902344,253.19900512695312 C-207,255 -227,259.5 -242.572998046875,260.114990234375 C-259.55999755859375,260.7860107421875 -272,262.5 -282.01800537109375,262.125 C-291.5249938964844,261.7690124511719 -310.02099609375,290.0589904785156 -296.4049987792969,291.82000732421875 C-273.75,294.75 -250.01699829101562,291.4460144042969 -239.4810028076172,290.947998046875 C-230,290.5 -199.5,288.5 -177.5330047607422,284.885986328125 C-174.75,279.25 -175.0709991455078,252.54800415039062 -183.54600524902344,253.19900512695312z"></path></g><g opacity="0" transform="matrix(0.5,0,0,0.5,7,-36)"><path stroke-linecap="round" stroke-linejoin="round" fill-opacity="0" stroke="rgb(134,232,209)" stroke-opacity="1" stroke-width="25" d=" M329.26800537109375,739.958984375 C390,735 419,710 436.625,695.3699951171875"></path></g></g><g style="display: block;" transform="matrix(1,0,0,1,256,261)" opacity="1"><g opacity="1" transform="matrix(1,0,0,1,0,0)"><path stroke-linecap="round" stroke-linejoin="round" fill-opacity="0" stroke="rgb(229,163,0)" stroke-opacity="1" stroke-width="8" d=" M-151.8459930419922,91.49099731445312 C-163.59100341796875,79.66699981689453 -137.40899658203125,43.8120002746582 -82.11000061035156,24.81800079345703 C-26.81100082397461,5.823999881744385 68.16000366210938,-2.434999942779541 128.4459991455078,24.81800079345703 C188.73199462890625,52.07099914550781 195.6320037841797,84.41500091552734 187.0070037841797,96.9219970703125 C178.3820037841797,109.42900085449219 151.9239959716797,97.77400207519531 136.61300659179688,97.8489990234375 C122.70500183105469,97.91699981689453 121.02300262451172,107.7040023803711 97.3030014038086,112.87899780273438 C73.58300018310547,118.05400085449219 37.44300079345703,105.98100280761719 1.2999999523162842,98.7750015258789 C-33.30699920654297,91.875 -55.05799865722656,89.66600036621094 -104.96199798583984,94.83000183105469 C-133.05599975585938,97.73699951171875 -144.3090057373047,99.0780029296875 -151.8459930419922,91.49099731445312z"></path></g><g opacity="1" transform="matrix(1,0,0,1,0,0)"><path stroke-linecap="round" stroke-linejoin="round" fill-opacity="0" stroke="rgb(196,98,0)" stroke-opacity="1" stroke-width="8" d=" M-82.20700073242188,24.85099983215332 C-82.17400360107422,24.84000015258789 -82.14199829101562,24.82900047302246 -82.11000061035156,24.81800079345703 C-26.81100082397461,5.823999881744385 68.16000366210938,-2.434999942779541 128.4459991455078,24.81800079345703 C188.73199462890625,52.07099914550781 195.6320037841797,84.41500091552734 187.0070037841797,96.9219970703125 C178.3820037841797,109.42900085449219 151.9239959716797,97.77400207519531 136.61300659179688,97.8489990234375 C122.83000183105469,97.91600036621094 121.05400085449219,107.52899932861328 97.93499755859375,112.73899841308594"></path></g><g opacity="1" transform="matrix(1,0,0,1,0,0)"><path stroke-linecap="round" stroke-linejoin="round" fill-opacity="0" stroke="rgb(150,83,23)" stroke-opacity="1" stroke-width="8" d=" M-44.76900100708008,14.907999992370605 C9.78600025177002,3.940000057220459 80.21600341796875,3.015000104904175 128.4459991455078,24.81800079345703 C134.09800720214844,27.37299919128418 139.281005859375,29.972000122070312 144.0260009765625,32.59600067138672"></path></g><g opacity="0.2" transform="matrix(1,0,0,1,0,0)"><path stroke-linecap="round" stroke-linejoin="round" fill-opacity="0" stroke="rgb(11,191,214)" stroke-opacity="1" stroke-width="8" d=" M185.19200134277344,69.16899871826172 C191.66900634765625,81.03299713134766 191.01100158691406,91.11499786376953 187.0070037841797,96.9219970703125 C178.3820037841797,109.42900085449219 151.9239959716797,97.77400207519531 136.61300659179688,97.8489990234375 C122.70500183105469,97.91699981689453 121.02300262451172,107.7040023803711 97.3030014038086,112.87899780273438 C73.58300018310547,118.05400085449219 37.44300079345703,105.98100280761719 1.2999999523162842,98.7750015258789 C-33.30699920654297,91.875 -55.05799865722656,89.66600036621094 -104.96199798583984,94.83000183105469 C-133.05599975585938,97.73699951171875 -144.3090057373047,99.0780029296875 -151.8459930419922,91.49099731445312 C-151.8459930419922,91.49099731445312 -151.8459930419922,91.49099731445312 -151.8459930419922,91.49099731445312 C-156.3179931640625,86.98899841308594 -155.29200744628906,79.00399780273438 -149.2530059814453,69.79100036621094"></path></g></g><g style="display: block;" transform="matrix(0.5,0,0,0.5,260,225)" opacity="1"><g opacity="1" transform="matrix(1,0,0,1,0,0)"><path fill="rgb(196,98,0)" fill-opacity="1" d=" M-30.75,171.25 C-32.25,161.25 -71.5,166.25 -69.75,177.5 C-68.06900024414062,188.30499267578125 -29.28700065612793,181.00599670410156 -30.75,171.25z"></path><path stroke-linecap="butt" stroke-linejoin="miter" fill-opacity="0" stroke-miterlimit="4" stroke="rgb(196,98,0)" stroke-opacity="1" stroke-width="9" d=" M-30.75,171.25 C-32.25,161.25 -71.5,166.25 -69.75,177.5 C-68.06900024414062,188.30499267578125 -29.28700065612793,181.00599670410156 -30.75,171.25z"></path></g></g><g style="display: block;" transform="matrix(1,0,0,1,256,261)" opacity="1"><g opacity="1" transform="matrix(1,0,0,1,0,0)"><path fill="rgb(204,102,0)" fill-opacity="1" d=" M-12.946999549865723,49.6619987487793 C-17.003999710083008,54.763999938964844 -23.708999633789062,55.11800003051758 -29.083999633789062,52.79499816894531 C-29.708999633789062,49.470001220703125 -66.76899719238281,-141.82400512695312 -67.65299987792969,-145.88299560546875 C-63.59199905395508,-146.76499938964844 -54.96799850463867,-148.09100341796875 -51.51499938964844,-149.01600646972656 C-50.18000030517578,-143.23599243164062 -13.479000091552734,45.61899948120117 -12.946999549865723,49.6619987487793z"></path></g><g opacity="0.4" transform="matrix(1,0,0,1,0,0)"><path stroke-linecap="round" stroke-linejoin="round" fill-opacity="0" stroke="rgb(255,255,255)" stroke-opacity="1" stroke-width="8" d=" M-25.054000854492188,53.42399978637695 C-25.054000854492188,53.42399978637695 -46.93299865722656,-60.573001861572266 -46.93299865722656,-60.573001861572266 M-25.054000854492188,53.42399978637695 C-25.054000854492188,53.42399978637695 -46.93299865722656,-60.573001861572266 -46.93299865722656,-60.573001861572266"></path></g><g opacity="0.4" transform="matrix(1,0,0,1,0,0)"><path fill="rgb(93,43,0)" fill-opacity="1" d=" M-26.72800064086914,-21.33300018310547 C-29.003000259399414,-22.530000686645508 -41.44200134277344,-32.95399856567383 -37.516998291015625,-4.9770002365112305 C-40.6510009765625,-14.411999702453613 -67.12100219726562,-140.0590057373047 -67.65299987792969,-145.88400268554688 C-64.6510009765625,-146.41200256347656 -54.96699905395508,-148.44200134277344 -51.51499938964844,-149.01499938964844 C-50.53300094604492,-145.35299682617188 -27.591999053955078,-25.70599937438965 -26.72800064086914,-21.33300018310547z"></path></g><g opacity="1" transform="matrix(1,0,0,1,0,0)"><path stroke-linecap="round" stroke-linejoin="round" fill-opacity="0" stroke="rgb(155,70,0)" stroke-opacity="1" stroke-width="8" d=" M-12.946999549865723,49.6619987487793 C-17.003999710083008,54.763999938964844 -23.708999633789062,55.11800003051758 -29.083999633789062,52.79499816894531 C-29.708999633789062,49.470001220703125 -66.76899719238281,-141.82400512695312 -67.65299987792969,-145.88299560546875 C-63.59199905395508,-146.76499938964844 -54.96799850463867,-148.09100341796875 -51.51499938964844,-149.01600646972656 C-50.18000030517578,-143.23599243164062 -13.479000091552734,45.61899948120117 -12.946999549865723,49.6619987487793z"></path></g><g opacity="1" transform="matrix(1,0,0,1,0,0)"><path stroke-linecap="round" stroke-linejoin="round" fill-opacity="0" stroke="rgb(93,43,0)" stroke-opacity="1" stroke-width="8" d=" M-42.56999969482422,-16.86400032043457 C-53.48099899291992,-73.15699768066406 -67.12100219726562,-143.44000244140625 -67.65299987792969,-145.88299560546875 C-63.59199905395508,-146.76499938964844 -54.96799850463867,-148.09100341796875 -51.51499938964844,-149.01600646972656 C-50.736000061035156,-145.64199829101562 -37.90399932861328,-79.87799835205078 -27.250999450683594,-24.91200065612793"></path></g></g><g style="display: block;" transform="matrix(1,0,0,1,256,261)" opacity="1"><g opacity="1" transform="matrix(1,0,0,1,0,0)"><path fill="url(#__lottie_element_10)" fill-opacity="1" d=" M-72.96099853515625,-208.29600524902344 C-76.06199645996094,-204.8820037841797 -83.35600280761719,-199 -94.58300018310547,-196.76199340820312 C-105.94400024414062,-196.8820037841797 -138.1790008544922,-192.41200256347656 -162.48899841308594,-157.49200439453125 C-173.70899963378906,-148.88299560546875 -204.2969970703125,-126.05899810791016 -215.8780059814453,-80.8219985961914 C-204.76800537109375,-79.23500061035156 -181.94500732421875,-70.05899810791016 -166.8159942626953,-48.11000061035156 C-138.6510009765625,-54.29399871826172 -107.35700225830078,-64.64700317382812 -43.909000396728516,-51.58399963378906 C-19.591999053955078,-67.23500061035156 18.05500030517578,-89.58799743652344 71.55899810791016,-92.21700286865234 C72.99600219726562,-97 76.1729965209961,-128.41200256347656 105.76200103759766,-142.27099609375 C91.46700286865234,-166.52999877929688 62.99700164794922,-184.64700317382812 32.17300033569336,-192.8820037841797 C10.76099967956543,-212.17599487304688 -20.76799964904785,-215.9409942626953 -49.23899841308594,-206.29400634765625 C-58.415000915527344,-205.35299682617188 -67.35600280761719,-206.0590057373047 -72.96099853515625,-208.29600524902344z"></path></g><g opacity="0.2" transform="matrix(1,0,0,1,0,0)"><path fill="rgb(155,134,83)" fill-opacity="1" d=" M105.76200103759766,-142.27099609375 C81.47200012207031,-129.58799743652344 74.4219970703125,-108.68800354003906 72.38400268554688,-98.36799621582031 C43.34000015258789,-184.6060028076172 -48.98699951171875,-193.96499633789062 -9.241000175476074,-191.07000732421875 C60.78499984741211,-185.97000122070312 105.76200103759766,-142.27099609375 105.76200103759766,-142.27099609375z"></path></g><g opacity="1" transform="matrix(1,0,0,1,0,0)"><path fill="rgb(244,28,28)" fill-opacity="1" d=" M-72.73899841308594,-193.03799438476562 C-85.4739990234375,-187 -151.12100219726562,-153.822998046875 -166.8159942626953,-48.11000061035156 C-185.14999389648438,-76.35600280761719 -215.8780059814453,-80.8219985961914 -215.8780059814453,-80.8219985961914 C-204.4149932861328,-125.58799743652344 -169.1219940185547,-152.0590057373047 -160.25999450683594,-156.14500427246094 C-151.82699584960938,-165.1179962158203 -113.35700225830078,-190.17599487304688 -72.73899841308594,-193.03799438476562z"></path></g><g opacity="1" transform="matrix(1,0,0,1,0,0)"><path fill="rgb(244,28,28)" fill-opacity="1" d=" M71.55899810791016,-92.21700286865234 C22.17300033569336,-88.52999877929688 -8.180000305175781,-74.05799865722656 -43.909000396728516,-51.58399963378906 C-53.356998443603516,-146.05799865722656 -67.12100219726562,-175.70599365234375 -72.73899841308594,-193.03799438476562 C-60.41600036621094,-191.23500061035156 15.819999694824219,-195.1179962158203 71.55899810791016,-92.21700286865234z"></path></g><g opacity="1" transform="matrix(1,0,0,1,0,0)"><path fill="rgb(244,28,28)" fill-opacity="1" d=" M32.38999938964844,-192.83399963378906 C25.583999633789062,-193.9409942626953 -11.767999649047852,-204.0959930419922 -72.73899841308594,-193.03799438476562 C-67.70999908447266,-195.58799743652344 -57.24800109863281,-201.00399780273438 -47.23899841308594,-203.9409942626953 C-0.14100000262260437,-223.45199584960938 29.329999923706055,-194.9219970703125 32.38999938964844,-192.83399963378906z"></path></g><g opacity="1" transform="matrix(1,0,0,1,0,0)"><path fill="rgb(244,28,28)" fill-opacity="1" d=" M-72.73899841308594,-193.03799438476562 C-76.59200286865234,-193.5290069580078 -81.4739990234375,-194.47000122070312 -94.03600311279297,-193.15699768066406 C-86.06199645996094,-198.47000122070312 -74.35700225830078,-204.8820037841797 -70.18399810791016,-206.16799926757812 C-72.06300354003906,-203.70599365234375 -73.41600036621094,-200.1179962158203 -72.73899841308594,-193.03799438476562z"></path></g><g opacity="1" transform="matrix(1,0,0,1,0,0)"><path fill="rgb(221,26,11)" fill-opacity="1" d=" M8.017000198364258,-78.9229965209961 C-17.708999633789062,-68.05899810791016 -34.29800033569336,-57.823001861572266 -43.909000396728516,-51.58399963378906 C-49.22800064086914,-112.70899963378906 -58.29800033569336,-142.88299560546875 -65.5780029296875,-174.0469970703125 C-60.41600036621094,-155.9409942626953 -8.357000350952148,-69.40799713134766 8.017000198364258,-78.9229965209961z"></path></g><g opacity="1" transform="matrix(1,0,0,1,0,0)"><path fill="rgb(221,26,11)" fill-opacity="1" d=" M-145.99899291992188,-117.38700103759766 C-154.99400329589844,-98.8219985961914 -162.51800537109375,-76.01399993896484 -166.8159942626953,-48.11000061035156 C-173.11599731445312,-57.819000244140625 -180.87899780273438,-64.72100067138672 -188.36399841308594,-69.59400177001953 C-177.35800170898438,-63.99800109863281 -156.5970001220703,-98.1449966430664 -145.99899291992188,-117.38700103759766z"></path></g><g opacity="0.5" transform="matrix(1,0,0,1,0,0)"><path stroke-linecap="round" stroke-linejoin="round" fill-opacity="0" stroke="rgb(255,255,255)" stroke-opacity="1" stroke-width="7" d=" M-188.36500549316406,-69.59400177001953 C-188.36500549316406,-69.59400177001953 -196.14100646972656,-79.52799987792969 -207.35800170898438,-84.26399993896484 C-207.35800170898438,-84.26399993896484 -196.3520050048828,-126.37300109863281 -155.7030029296875,-153.9969940185547 C-155.7030029296875,-153.9969940185547 -149.5,-177 -122.58300018310547,-188.76199340820312"></path></g><g opacity="0.15" transform="matrix(1,0,0,1,0,0)"><path fill="rgb(255,255,255)" fill-opacity="1" d=" M12.86400032043457,-200.3249969482422 C15.656000137329102,-188.06700134277344 -19.25200080871582,-161.1179962158203 -65.80000305175781,-150.51499938964844 C-112.3479995727539,-139.91200256347656 -152.91000366210938,-149.6719970703125 -155.70199584960938,-161.92999267578125 C-158.49400329589844,-174.18800354003906 -123.02200317382812,-192.718994140625 -76.4739990234375,-203.32200622558594 C-29.926000595092773,-213.9250030517578 10.071999549865723,-212.58299255371094 12.86400032043457,-200.3249969482422z"></path></g><g opacity="0.5" transform="matrix(1,0,0,1,0,0)"><path stroke-linecap="round" stroke-linejoin="round" fill-opacity="0" stroke="rgb(255,255,255)" stroke-opacity="1" stroke-width="7" d=" M-19,-211.6230010986328 C-19,-211.6230010986328 12.119000434875488,-206.21499633789062 28.729999542236328,-187.0489959716797 C28.729999542236328,-187.0489959716797 76.1729965209961,-175.35299682617188 95.96099853515625,-143.03199768066406 C95.96099853515625,-143.03199768066406 75.1259994506836,-131.45599365234375 73.39399719238281,-102.64900207519531"></path></g></g><g style="display: block;" transform="matrix(1,0,0,1,256,261)" opacity="1"><g opacity="1" transform="matrix(1,0,0,1,0,0)"><path stroke-linecap="round" stroke-linejoin="round" fill-opacity="0" stroke="rgb(155,134,83)" stroke-opacity="1" stroke-width="8" d=" M-72.96099853515625,-208.29600524902344 C-76.06199645996094,-204.8820037841797 -83.35600280761719,-199 -94.58300018310547,-196.76199340820312 C-105.94400024414062,-196.8820037841797 -138.1790008544922,-192.41200256347656 -162.48899841308594,-157.49200439453125 C-173.70899963378906,-148.88299560546875 -204.2969970703125,-126.05899810791016 -215.8780059814453,-80.8219985961914 C-204.76800537109375,-79.23500061035156 -181.94500732421875,-70.05899810791016 -166.8159942626953,-48.11000061035156 C-138.6510009765625,-54.29399871826172 -107.35700225830078,-64.64700317382812 -43.909000396728516,-51.58399963378906 C-19.591999053955078,-67.23500061035156 18.05500030517578,-89.58799743652344 71.55899810791016,-92.21700286865234 C72.99600219726562,-97 76.1729965209961,-128.41200256347656 105.76200103759766,-142.27099609375 C91.46700286865234,-166.52999877929688 62.99700164794922,-184.64700317382812 32.17300033569336,-192.8820037841797 C10.76099967956543,-212.17599487304688 -20.76799964904785,-215.9409942626953 -49.23899841308594,-206.29400634765625 C-58.415000915527344,-205.35299682617188 -67.35600280761719,-206.0590057373047 -72.96099853515625,-208.29600524902344z"></path></g><g opacity="1" transform="matrix(1,0,0,1,0,0)"><path stroke-linecap="round" stroke-linejoin="round" fill-opacity="0" stroke="rgb(183,158,101)" stroke-opacity="1" stroke-width="8" d=" M-27.26300048828125,-211.00599670410156 C-34.641998291015625,-210.3159942626953 -42.03799819946289,-208.73399353027344 -49.23899841308594,-206.29400634765625 C-58.415000915527344,-205.35299682617188 -67.35600280761719,-206.0590057373047 -72.96099853515625,-208.29600524902344 C-72.96099853515625,-208.29600524902344 -72.96099853515625,-208.29600524902344 -72.96099853515625,-208.29600524902344 C-76.06199645996094,-204.8820037841797 -83.35600280761719,-199 -94.58300018310547,-196.76199340820312 C-105.94400024414062,-196.8820037841797 -138.1790008544922,-192.41200256347656 -162.48899841308594,-157.49200439453125 C-169.46099853515625,-152.14300537109375 -183.91000366210938,-141.30499267578125 -196.63099670410156,-123.01300048828125"></path></g><g opacity="1" transform="matrix(1,0,0,1,0,0)"><path stroke-linecap="round" stroke-linejoin="round" fill-opacity="0" stroke="rgb(170,4,0)" stroke-opacity="1" stroke-width="8" d=" M-163.00999450683594,-157.09300231933594 C-174.6269989013672,-148.19000244140625 -204.4720001220703,-125.37699890136719 -215.8780059814453,-80.8219985961914 C-205.54100036621094,-79.34500122070312 -185.06500244140625,-71.30000305175781 -170.0800018310547,-52.50899887084961"></path></g><g opacity="1" transform="matrix(1,0,0,1,0,0)"><path stroke-linecap="round" stroke-linejoin="round" fill-opacity="0" stroke="rgb(206,40,40)" stroke-opacity="1" stroke-width="8" d=" M-72.96099853515625,-208.29600524902344 C-76.05500030517578,-204.88999938964844 -83.322998046875,-199.02699279785156 -94.50700378417969,-196.77699279785156"></path></g><g opacity="1" transform="matrix(1,0,0,1,0,0)"><path stroke-linecap="round" stroke-linejoin="round" fill-opacity="0" stroke="rgb(206,40,40)" stroke-opacity="1" stroke-width="8" d=" M25.19700050354004,-198.38800048828125 C4.4629998207092285,-212.66799926757812 -23.15999984741211,-214.89599609375 -48.46900177001953,-206.55099487304688"></path></g><g opacity="1" transform="matrix(1,0,0,1,0,0)"><path stroke-linecap="round" stroke-linejoin="round" fill-opacity="0" stroke="rgb(170,4,0)" stroke-opacity="1" stroke-width="8" d=" M-40.82400131225586,-53.55799865722656 C-16.959999084472656,-68.72699737548828 18.742000579833984,-88.83799743652344 68.37000274658203,-92.03600311279297"></path></g><g opacity="1" transform="matrix(1,0,0,1,0,0)"><path fill="rgb(142,66,2)" fill-opacity="1" d=" M-63.111000061035156,-195.06399536132812 C-62.731998443603516,-193.3990020751953 -66.63099670410156,-191.08999633789062 -71.81999969482422,-189.9080047607422 C-77.00900268554688,-188.7259979248047 -81.52300262451172,-189.11900329589844 -81.9020004272461,-190.78399658203125 C-82.28099822998047,-192.44900512695312 -78.38200378417969,-194.7570037841797 -73.19300079345703,-195.93899536132812 C-68.00399780273438,-197.12100219726562 -63.4900016784668,-196.72900390625 -63.111000061035156,-195.06399536132812z"></path></g><g opacity="1" transform="matrix(1,0,0,1,0,0)"><path fill="rgb(91,39,0)" fill-opacity="1" d=" M-67.447998046875,-194.91799926757812 C-67.3010025024414,-194.2740020751953 -69.5510025024414,-193.21200561523438 -72.4729995727539,-192.54600524902344 C-75.3949966430664,-191.88099670410156 -77.88200378417969,-191.86399841308594 -78.02899932861328,-192.50799560546875 C-78.1760025024414,-193.15199279785156 -75.9260025024414,-194.21400451660156 -73.00399780273438,-194.87899780273438 C-70.08200073242188,-195.54400634765625 -67.59500122070312,-195.56199645996094 -67.447998046875,-194.91799926757812z"></path></g></g></g></svg>