<svg xmlns="http://www.w3.org/2000/svg" width="512" height="512" style="width:100%;height:100%;transform:translate3d(0,0,0)">
  <defs>
    <radialGradient id="d" spreadMethod="pad" gradientUnits="userSpaceOnUse" cx="-69.533" cy="-144.056" r="156.714" fx="-69.533" fy="-144.056">
      <stop offset="0%" stop-color="#FFFFB0"/>
      <stop offset="45%" stop-color="#F5E99B"/>
      <stop offset="64%" stop-color="#EAD285"/>
      <stop offset="82%" stop-color="#E9CF80"/>
      <stop offset="100%" stop-color="#E7CC7A"/>
    </radialGradient>
    <radialGradient id="b" spreadMethod="pad" gradientUnits="userSpaceOnUse" cx="18.467" cy="140.419" r="295.812" fx="18.467" fy="140.419">
      <stop offset="22%" stop-color="#EBFBD8"/>
      <stop offset="34%" stop-color="#D3FBD7"/>
      <stop offset="47%" stop-color="#BBFBD6"/>
      <stop offset="66%" stop-color="#95F9E9"/>
      <stop offset="100%" stop-color="#6FF6FB"/>
    </radialGradient>
    <linearGradient id="c" spreadMethod="pad" gradientUnits="userSpaceOnUse" x1="15.467" y1="95" x2="26.853" y2="28.965">
      <stop offset="0%" stop-color="#FFF236"/>
      <stop offset="50%" stop-color="#FDC63C"/>
      <stop offset="100%" stop-color="#FC9A43"/>
    </linearGradient>
    <clipPath id="a">
      <path d="M0 0h512v512H0z"/>
    </clipPath>
  </defs>
  <g clip-path="url(#a)">
    <g style="display:block">
      <path fill="#FFF" d="M396.055 312.941c27.882 2.824 48.354 16.588 63.261 33.043 8.438 9.314 28.209 47.774-10.33 79.349-43.128 35.335-125.434 51.675-219.173 46.28-93.739-5.395-150.688-45.795-161.174-83.219-9.159-32.69 11.451-44.789 17.722-48.851 9.256-5.995 24.165-12.132 53.459-16.014 75.681-10.03 202.126-16.067 256.235-10.588z"/>
      <path fill="url(#b)" d="M-169.639 78.543s-26.881 16.161-17.722 48.851c10.486 37.424 67.435 77.824 161.174 83.219 93.739 5.395 176.045-10.945 219.173-46.28 38.539-31.575 18.112-72.431 10.33-79.349 0 0 8.17 29.148-19.456 31.927-21.055 2.118-34.397-11.777-53.04-5.852-16.673 5.299-15.983 20.438-50.442 19.792-43.939-.824-87.381-25.449-130.88-25.756-53.06-.375-130.758 25.351-119.137-26.552z" transform="translate(256 261)"/>
      <path fill="#FFF" d="M107.197 435.669c-.197 1.887 6.303 2.331 6.303.554 0-1.776-6.129-2.223-6.303-.554zm-9.349-5.084C97.5 432.945 109 433.5 109 431.28c0-2.22-10.844-2.779-11.152-.694zM139.301 453c7.572 2.975 19.95 7.062 26.094 8.124 4.144.638 11.105 3.376 17.105 4.888 13.172 3.318 25.665 4.83 33.234 5.712 4.516.526 17.246 1.576 22.935 1.762 8.081.264 25.016-.175 31.545-.175 6.79 0 18.269-.5 29.453-.713 10.341-.196 21.991-2.45 34.134-2.875 9.558-.334 12.592-1.664 17.654-2.199 4.024-.425 7.067-1.425 9.73-1.85 3.099-.638 9.2-2.488 13.315-4.824-5.35 2.125-33.264 7.436-41.035 7.862-5.904.323-9.999.074-22.928.925-10.243.673-23.701 1.862-36.716.8-7.539-.616-29.393 1.407-43.867.287-31.954-2.474-42.454-4.224-60.11-9.561-9.425-2.85-19.594-3.663-30.543-8.163z" opacity=".6"/>
      <path stroke-linecap="round" stroke-linejoin="round" stroke="#86E8D1" stroke-width="6" d="M239.73 472.258c2.47.385 7.77.242 12.555.034M308.005 469.72c5.948-.146 10.988-.555 17.273-1.047M151.856 457.104C158 459.75 164.75 462 173.081 463.44" fill="none"/>
      <path stroke-linecap="round" stroke-linejoin="round" stroke="#0BBFD6" stroke-width="8" d="M396.055 312.941c27.882 2.824 48.354 16.588 63.261 33.043 8.438 9.314 28.209 47.774-10.33 79.349-43.128 35.335-125.434 51.675-219.173 46.28-93.739-5.395-150.688-45.795-161.174-83.219-9.159-32.69 11.451-44.789 17.722-48.851 9.256-5.995 24.165-12.132 53.459-16.014 75.681-10.03 202.126-16.067 256.235-10.588z" fill="none"/>
      <path fill="#FFF" d="M402.241 375.143c0 .983-1.672 1.779-3.734 1.779-2.062 0-3.733-.796-3.733-1.779 0-.983 1.671-1.78 3.733-1.78 2.062 0 3.734.797 3.734 1.78zM215.613 371.992c0 1.734-2.893 3.14-6.461 3.14-3.568 0-6.46-1.406-6.46-3.14 0-1.734 2.892-3.14 6.46-3.14s6.461 1.406 6.461 3.14zM197.45 370.212c0 .983-1.671 1.78-3.733 1.78-2.062 0-3.733-.797-3.733-1.78s1.671-1.78 3.733-1.78c2.062 0 3.733.797 3.733 1.78zM218.95 362.466c0 .571-1.671 1.034-3.733 1.034-2.062 0-3.733-.463-3.733-1.034s1.671-1.034 3.733-1.034c2.062 0 3.733.463 3.733 1.034zM365.373 384.492c0 .695-1.669 1.258-3.729 1.258s-3.73-.563-3.73-1.258c0-.695 1.67-1.258 3.73-1.258s3.729.563 3.729 1.258z"/>
    </g>
    <g style="display:block">
      <path fill="url(#c)" d="M-151.846 91.491c-11.745-11.824 14.437-47.679 69.736-66.673 55.299-18.994 150.27-27.253 210.556 0s67.186 59.597 58.561 72.104c-8.625 12.507-35.083.852-50.394.927-13.908.068-15.59 9.855-39.31 15.03-23.72 5.175-59.86-6.898-96.003-14.104-34.607-6.9-56.358-9.109-106.262-3.945-28.094 2.907-39.347 4.248-46.884-3.339z" transform="translate(256 261)"/>
      <path fill="#5D2B00" d="M244.906 311.589c6.932-17.848 25.415-8.071 40.823-15.409 18.878-8.99 46.735-11.115 67.812-3.378 18.27 6.707 37.926 9.551 50.985 4.257-10.235-9.529-64.824-41.177-185.26-22.67-10.564 1.623-23.049 9.965-4.931 14.14 18.118 4.175 25.299 36.633 30.571 23.06z" opacity=".3"/>
      <path fill="#5D2B00" d="M285.73 296.178c-14.968 7.587-33.41-2.913-40.82 15.41-2.662 6.583-9.033-1.338-10.12-4.36-1.087-3.022-3.999-6.965-1.548-9.678 9.372-10.373 37.534-15.502 63.648-17.497 19.011-1.452 41.901 1.653 41.548 5.359-.328 3.444-17.888 2.283-25.853 3.353-11.824 1.588-21.056 4.474-26.855 7.413z" opacity=".2"/>
      <path fill="#C46200" d="M443.009 357.919c-8.625 12.507-37.521 1.732-51.324 0-13.804-1.723-14.672 10.749-38.381 15.962-29.161 6.411-79.245-13.541-96.004-16.885 16.37 3.02 82.199 18.3 104.488 1.368 18.917-14.371 23.534-15.564 57.301-13.053 24.367 1.812 20.854-15.731 17.435-22.327 11.274 14.915 11.275 27.987 6.485 34.935z" opacity=".3"/>
    </g>
    <g style="display:block">
      <path stroke-linecap="round" stroke-linejoin="round" stroke="#C29D5C" stroke-width="9" d="M134.902 359.505c3.303-3.502 10.915-2.545 10.301 2.33 4.377-1.373 12.108-2.627 9.189 2.797 4.762-.412 3.633-.79 2.98-.659-1.372.276-7.936.628-11.315 1.177-.62.662-2.932.1-3.928.162-4.191-1.25-10.691.437-12.191-.943.5-.12.062-.557.705-.989-.768-.943-1.807-1.01-1.972-1.932-.483-2.699 1.93-3.659 6.231-1.943z" fill="none"/>
      <path fill="#E3D39E" d="M134.902 359.505c3.303-3.502 10.915-2.545 10.301 2.33 4.377-1.373 12.108-2.627 9.189 2.797 4.762-.412 3.633-.79 2.98-.659-1.372.276-7.936.628-11.315 1.177-.62.662-2.932.1-3.928.162-4.191-1.25-10.691.437-12.191-.943.5-.12.062-.557.705-.989-.768-.943-1.807-1.01-1.972-1.932-.483-2.699 1.93-3.659 6.231-1.943z"/>
    </g>
    <g style="display:block">
      <path fill="#FFF" d="M380.5 362.25c-3.75 2-8 4.75-15.5 8.75s-23.5 4.25-28.25 4-2.48 16.02 4.375 16.375c16.875.875 24.75-6.25 29.25-9s7.5-8.875 20.125-11.625c-1-2.25-6.25-10.5-10-8.5zM168.227 351.6c-11.727.9-21.727 3.15-29.513 3.457-8.494.336-14.714 1.193-19.723 1.005-4.753-.177-14.001 13.967-7.193 14.848 11.327 1.465 23.194-.187 28.461-.436 4.741-.224 19.991-1.224 30.974-3.031 1.392-2.818 1.232-16.169-3.006-15.843z"/>
    </g>
    <g style="display:block">
      <path stroke-linecap="round" stroke-linejoin="round" stroke="#E5A300" stroke-width="8" d="M104.154 352.491c-11.745-11.824 14.437-47.679 69.736-66.673 55.299-18.994 150.27-27.253 210.556 0s67.186 59.597 58.561 72.104c-8.625 12.507-35.083.852-50.394.927-13.908.068-15.59 9.855-39.31 15.03-23.72 5.175-59.86-6.898-96.003-14.104-34.607-6.9-56.358-9.109-106.262-3.945-28.094 2.907-39.347 4.248-46.884-3.339z" fill="none"/>
      <path stroke-linecap="round" stroke-linejoin="round" stroke="#C46200" stroke-width="8" d="m173.793 285.851.097-.033c55.299-18.994 150.27-27.253 210.556 0s67.186 59.597 58.561 72.104c-8.625 12.507-35.083.852-50.394.927-13.783.067-15.559 9.68-38.678 14.89" fill="none"/>
      <path stroke-linecap="round" stroke-linejoin="round" stroke="#965317" stroke-width="8" d="M211.231 275.908c54.555-10.968 124.985-11.893 173.215 9.91 5.652 2.555 10.835 5.154 15.58 7.778" fill="none"/>
      <path stroke-linecap="round" stroke-linejoin="round" stroke="#0BBFD6" stroke-width="8" d="M441.192 330.169c6.477 11.864 5.819 21.946 1.815 27.753-8.625 12.507-35.083.852-50.394.927-13.908.068-15.59 9.855-39.31 15.03-23.72 5.175-59.86-6.898-96.003-14.104-34.607-6.9-56.358-9.109-106.262-3.945-28.094 2.907-39.347 4.248-46.884-3.339 0 0 0 0 0 0-4.472-4.502-3.446-12.487 2.593-21.7" fill="none" opacity=".2"/>
    </g>
    <g style="display:block">
      <path fill="#C46200" d="M244.625 310.625c-.75-5-20.375-2.5-19.5 3.125.84 5.402 20.231 1.753 19.5-3.125z"/>
      <path stroke="#C46200" stroke-width="4.5" d="M244.625 310.625c-.75-5-20.375-2.5-19.5 3.125.84 5.402 20.231 1.753 19.5-3.125z" fill="none"/>
    </g>
    <g style="display:block">
      <path fill="#C60" d="M243.053 310.662c-4.057 5.102-10.762 5.456-16.137 3.133-.625-3.325-37.685-194.619-38.569-198.678 4.061-.882 12.685-2.208 16.138-3.133 1.335 5.78 38.036 194.635 38.568 198.678z"/>
      <path stroke-linecap="round" stroke-linejoin="round" stroke="#FFF" stroke-width="8" d="m230.946 314.424-21.879-113.997m21.879 113.997-21.879-113.997" fill="none" opacity=".4"/>
      <path fill="#5D2B00" d="M229.272 239.667c-2.275-1.197-14.714-11.621-10.789 16.356-3.134-9.435-29.604-135.082-30.136-140.907 3.002-.528 12.686-2.558 16.138-3.131.982 3.662 23.923 123.309 24.787 127.682z" opacity=".4"/>
      <path stroke-linecap="round" stroke-linejoin="round" stroke="#9B4600" stroke-width="8" d="M243.053 310.662c-4.057 5.102-10.762 5.456-16.137 3.133-.625-3.325-37.685-194.619-38.569-198.678 4.061-.882 12.685-2.208 16.138-3.133 1.335 5.78 38.036 194.635 38.568 198.678z" fill="none"/>
      <path stroke-linecap="round" stroke-linejoin="round" stroke="#5D2B00" stroke-width="8" d="M213.43 244.136c-10.911-56.293-24.551-126.576-25.083-129.019 4.061-.882 12.685-2.208 16.138-3.133.779 3.374 13.611 69.138 24.264 124.104" fill="none"/>
    </g>
    <g style="display:block">
      <path fill="url(#d)" d="M-72.961-208.296c-3.101 3.414-10.395 9.296-21.622 11.534-11.361-.12-43.596 4.35-67.906 39.27-11.22 8.609-41.808 31.433-53.389 76.67 11.11 1.587 33.933 10.763 49.062 32.712 28.165-6.184 59.459-16.537 122.907-3.474 24.317-15.651 61.964-38.004 115.468-40.633 1.437-4.783 4.614-36.195 34.203-50.054-14.295-24.259-42.765-42.376-73.589-50.611-21.412-19.294-52.941-23.059-81.412-13.412-9.176.941-18.117.235-23.722-2.002z" transform="translate(256 261)"/>
      <path fill="#9B8653" d="M361.762 118.729c-24.29 12.683-31.34 33.583-33.378 43.903-29.044-86.238-121.371-95.597-81.625-92.702 70.026 5.1 115.003 48.799 115.003 48.799z" opacity=".2"/>
      <path fill="#F41C1C" d="M183.261 67.962C170.526 74 104.879 107.177 89.184 212.89c-18.334-28.246-49.062-32.712-49.062-32.712 11.463-44.766 46.756-71.237 55.618-75.323 8.433-8.973 46.903-34.031 87.521-36.893zM327.559 168.783c-49.386 3.687-79.739 18.159-115.468 40.633-9.448-94.474-23.212-124.122-28.83-141.454 12.323 1.803 88.559-2.08 144.298 100.821z"/>
      <path fill="#F41C1C" d="M288.39 68.166c-6.806-1.107-44.158-11.262-105.129-.204 5.029-2.55 15.491-7.966 25.5-10.903 47.098-19.511 76.569 9.019 79.629 11.107z"/>
      <path fill="#F41C1C" d="M183.261 67.962c-3.853-.491-8.735-1.432-21.297-.119 7.974-5.313 19.679-11.725 23.852-13.011-1.879 2.462-3.232 6.05-2.555 13.13z"/>
      <path fill="#DD1A0B" d="M264.017 182.077c-25.726 10.864-42.315 21.1-51.926 27.339-5.319-61.125-14.389-91.299-21.669-122.463 5.162 18.106 57.221 104.639 73.595 95.124zM110.001 143.613c-8.995 18.565-16.519 41.373-20.817 69.277-6.3-9.709-14.063-16.611-21.548-21.484 11.006 5.596 31.767-28.551 42.365-47.793z"/>
      <path stroke-linecap="round" stroke-linejoin="round" stroke="#FFF" stroke-width="7" d="M67.635 191.406s-7.776-9.934-18.993-14.67c0 0 11.006-42.109 51.655-69.733 0 0 6.203-23.003 33.12-34.765" fill="none" opacity=".5"/>
      <path fill="#FFF" d="M268.864 60.675c2.792 12.258-32.116 39.207-78.664 49.81-46.548 10.603-87.11.843-89.902-11.415-2.792-12.258 32.68-30.789 79.228-41.392 46.548-10.603 86.546-9.261 89.338 2.997z" opacity=".15"/>
      <path stroke-linecap="round" stroke-linejoin="round" stroke="#FFF" stroke-width="7" d="M237 49.377s31.119 5.408 47.73 24.574c0 0 47.443 11.696 67.231 44.017 0 0-20.835 11.576-22.567 40.383" fill="none" opacity=".5"/>
    </g>
    <g style="display:block">
      <path stroke-linecap="round" stroke-linejoin="round" stroke="#9B8653" stroke-width="8" d="M183.039 52.704c-3.101 3.414-10.395 9.296-21.622 11.534-11.361-.12-43.596 4.35-67.906 39.27-11.22 8.609-41.808 31.433-53.389 76.67 11.11 1.587 33.933 10.763 49.062 32.712 28.165-6.184 59.459-16.537 122.907-3.474 24.317-15.651 61.964-38.004 115.468-40.633 1.437-4.783 4.614-36.195 34.203-50.054-14.295-24.259-42.765-42.376-73.589-50.611-21.412-19.294-52.941-23.059-81.412-13.412-9.176.941-18.117.235-23.722-2.002z" fill="none"/>
      <path stroke-linecap="round" stroke-linejoin="round" stroke="#B79E65" stroke-width="8" d="M228.737 49.994c-7.379.69-14.775 2.272-21.976 4.712-9.176.941-18.117.235-23.722-2.002 0 0 0 0 0 0-3.101 3.414-10.395 9.296-21.622 11.534-11.361-.12-43.596 4.35-67.906 39.27-6.972 5.349-21.421 16.187-34.142 34.479" fill="none"/>
      <path stroke-linecap="round" stroke-linejoin="round" stroke="#AA0400" stroke-width="8" d="M92.99 103.907c-11.617 8.903-41.462 31.716-52.868 76.271 10.337 1.477 30.813 9.522 45.798 28.313" fill="none"/>
      <path stroke-linecap="round" stroke-linejoin="round" stroke="#CE2828" stroke-width="8" d="M183.039 52.704c-3.094 3.406-10.362 9.269-21.546 11.519M281.197 62.612c-20.734-14.28-48.357-16.508-73.666-8.163" fill="none"/>
      <path stroke-linecap="round" stroke-linejoin="round" stroke="#AA0400" stroke-width="8" d="M215.176 207.442c23.864-15.169 59.566-35.28 109.194-38.478" fill="none"/>
      <path fill="#8E4202" d="M192.889 65.936c.379 1.665-3.52 3.974-8.709 5.156-5.189 1.182-9.703.789-10.082-.876-.379-1.665 3.52-3.973 8.709-5.155 5.189-1.182 9.703-.79 10.082.875z"/>
      <path fill="#5B2700" d="M188.552 66.082c.147.644-2.103 1.706-5.025 2.372-2.922.665-5.409.682-5.556.038-.147-.644 2.103-1.706 5.025-2.371s5.409-.683 5.556-.039z"/>
    </g>
  </g>
</svg>
