<svg xmlns="http://www.w3.org/2000/svg" xmlns:xlink="http://www.w3.org/1999/xlink" viewBox="0 0 512 512" width="512" height="512" style="width: 100%; height: 100%; transform: translate3d(0,0,0);" preserveAspectRatio="xMidYMid meet"><defs><clipPath id="__lottie_element_38"><rect width="512" height="512" x="0" y="0"></rect></clipPath><linearGradient id="__lottie_element_44" spreadMethod="pad" gradientUnits="userSpaceOnUse" x1="-226.6060028076172" y1="6.083000183105469" x2="157.73599243164062" y2="-2.756999969482422"><stop offset="0%" stop-color="rgb(211,153,39)"></stop><stop offset="50%" stop-color="rgb(223,165,57)"></stop><stop offset="100%" stop-color="rgb(235,177,74)"></stop></linearGradient><linearGradient id="__lottie_element_92" spreadMethod="pad" gradientUnits="userSpaceOnUse" x1="-159.5970001220703" y1="10.77400016784668" x2="195.21400451660156" y2="56.73400115966797"><stop offset="0%" stop-color="rgb(170,100,39)"></stop><stop offset="14%" stop-color="rgb(173,108,48)"></stop><stop offset="28%" stop-color="rgb(177,117,58)"></stop><stop offset="36%" stop-color="rgb(129,79,30)"></stop><stop offset="57%" stop-color="rgb(81,40,2)"></stop><stop offset="72%" stop-color="rgb(109,70,33)"></stop><stop offset="100%" stop-color="rgb(137,100,65)"></stop></linearGradient></defs><g clip-path="url(#__lottie_element_38)"><g style="display: block;" transform="matrix(0.7277421951293945,0.6106482744216919,-0.6106482744216919,0.7277421951293945,249.5158233642578,255.0818634033203)" opacity="1"><g opacity="1" transform="matrix(1,0,0,1,0,0)"><path fill="url(#__lottie_element_92)" fill-opacity="1" d=" M-3.309999942779541,-128.33299255371094 C-116.65699768066406,-113.28700256347656 -244.59300231933594,-31.70199966430664 -228.718994140625,49.316001892089844 C-217.70899963378906,105.51200103759766 -139.91600036621094,156.1269989013672 -50.380001068115234,164.83099365234375 C32.902000427246094,172.9290008544922 99.46399688720703,153.95899963378906 131.06500244140625,132.218994140625 C162.66600036621094,110.47899627685547 161.03199768066406,90.18299865722656 138.4199981689453,70.2249984741211 C123.18299865722656,56.7760009765625 97.4209976196289,69.34100341796875 98.33000183105469,57.755001068115234 C99.46900177001953,43.09000015258789 126.62699890136719,30.059999465942383 162.63499450683594,27.923999786376953 C203.18099975585938,25.531999588012695 263.2550048828125,21.246000289916992 251.08299255371094,-47.04999923706055 C238.74099731445312,-116.30000305175781 116.02400207519531,-144.16400146484375 -3.309999942779541,-128.33299255371094z M123.19000244140625,-22.238000869750977 C124.01599884033203,-9.086999893188477 108.51100158691406,2.5759999752044678 88.5739974975586,3.819999933242798 C68.63099670410156,5.056000232696533 51.79999923706055,-4.585999965667725 50.97999954223633,-17.729999542236328 C50.1619987487793,-30.88800048828125 65.66600036621094,-42.54999923706055 85.60299682617188,-43.79399871826172 C105.54000091552734,-45.03799819946289 122.37799835205078,-35.38800048828125 123.19000244140625,-22.238000869750977z"></path><path stroke-linecap="round" stroke-linejoin="round" fill-opacity="0" stroke="rgb(56,19,5)" stroke-opacity="1" stroke-width="8" d=" M-3.309999942779541,-128.33299255371094 C-116.65699768066406,-113.28700256347656 -244.59300231933594,-31.70199966430664 -228.718994140625,49.316001892089844 C-217.70899963378906,105.51200103759766 -139.91600036621094,156.1269989013672 -50.380001068115234,164.83099365234375 C32.902000427246094,172.9290008544922 99.46399688720703,153.95899963378906 131.06500244140625,132.218994140625 C162.66600036621094,110.47899627685547 161.03199768066406,90.18299865722656 138.4199981689453,70.2249984741211 C123.18299865722656,56.7760009765625 97.4209976196289,69.34100341796875 98.33000183105469,57.755001068115234 C99.46900177001953,43.09000015258789 126.62699890136719,30.059999465942383 162.63499450683594,27.923999786376953 C203.18099975585938,25.531999588012695 263.2550048828125,21.246000289916992 251.08299255371094,-47.04999923706055 C238.74099731445312,-116.30000305175781 116.02400207519531,-144.16400146484375 -3.309999942779541,-128.33299255371094z M123.19000244140625,-22.238000869750977 C124.01599884033203,-9.086999893188477 108.51100158691406,2.5759999752044678 88.5739974975586,3.819999933242798 C68.63099670410156,5.056000232696533 51.79999923706055,-4.585999965667725 50.97999954223633,-17.729999542236328 C50.1619987487793,-30.88800048828125 65.66600036621094,-42.54999923706055 85.60299682617188,-43.79399871826172 C105.54000091552734,-45.03799819946289 122.37799835205078,-35.38800048828125 123.19000244140625,-22.238000869750977z"></path></g><g opacity="1" transform="matrix(1,0,0,1,0,0)"><g opacity="0.2" transform="matrix(1,0,0,1,0,0)"><path fill="rgb(255,255,255)" fill-opacity="1" d=" M149.39700317382812,89.36000061035156 C157.947998046875,115.28900146484375 128.26499938964844,128.13299560546875 127.66200256347656,128.572998046875 C127.66200256347656,128.572998046875 124.71399688720703,115.36199951171875 124.71399688720703,115.36199951171875 C126.3290023803711,114.36699676513672 144.15699768066406,96.93299865722656 149.39700317382812,89.36000061035156z"></path></g><g opacity="0.2" transform="matrix(1,0,0,1,0,0)"><path fill="rgb(255,255,255)" fill-opacity="1" d=" M247.3419952392578,-19.865999221801758 C244.89500427246094,4.802000045776367 220.6199951171875,11.881999969482422 220.01699829101562,12.321999549865723 C220.01699829101562,12.321999549865723 217.5959930419922,1.062000036239624 217.5959930419922,1.062000036239624 C219.21099853515625,0.06700000166893005 236.8820037841797,-8.208000183105469 247.3419952392578,-19.865999221801758z"></path></g></g></g><g style="display: block;" transform="matrix(0.7277421951293945,0.6106482744216919,-0.6106482744216919,0.7277421951293945,258.40509033203125,243.97227478027344)" opacity="1"><g opacity="1" transform="matrix(1,0,0,1,0,0)"><g opacity="1" transform="matrix(1,0,0,1,0,0)"><path fill="url(#__lottie_element_44)" fill-opacity="1" d=" M-6.920000076293945,-135.7469940185547 C-120.26699829101562,-120.70099639892578 -234.00999450683594,-41.01900100708008 -232.91099548339844,40.430999755859375 C-231.9219970703125,113.76000213623047 -144.35299682617188,150.05999755859375 -54.81700134277344,158.76400756835938 C28.46500015258789,166.86199951171875 99.33899688720703,145.2530059814453 130.94000244140625,123.51300048828125 C162.54100036621094,101.77300262451172 143.40899658203125,82 125.0009994506836,77.56900024414062 C105.24099731445312,72.81600189208984 94.39800262451172,65.3499984741211 95.30699920654297,53.763999938964844 C96.44599914550781,39.0989990234375 119.322998046875,28.356000900268555 155.33099365234375,26.219999313354492 C195.8769989013672,23.82699966430664 268.32598876953125,10.119000434875488 244.86700439453125,-49.013999938964844 C218.92799377441406,-114.39700317382812 112.41400146484375,-151.5780029296875 -6.920000076293945,-135.7469940185547z M119.5790023803711,-29.652000427246094 C120.40499877929688,-16.500999450683594 104.9010009765625,-4.8379998207092285 84.96399688720703,-3.5940001010894775 C65.02100372314453,-2.3580000400543213 48.189998626708984,-12 47.369998931884766,-25.143999099731445 C46.551998138427734,-38.301998138427734 62.055999755859375,-49.9640007019043 81.99299621582031,-51.20800018310547 C101.93000030517578,-52.45199966430664 118.76699829101562,-42.801998138427734 119.5790023803711,-29.652000427246094z"></path></g><g opacity="0" transform="matrix(0.9524499773979187,0,0,0.8917199969291687,-0.11900000274181366,-5.499000072479248)"><path fill="rgb(217,160,48)" fill-opacity="1" d=" M-7.933000087738037,-132.8679962158203 C-119.11199951171875,-117.3219985961914 -230.67999267578125,-34.987998962402344 -229.6020050048828,49.17100143432617 C-228.63099670410156,124.94000244140625 -142.73800659179688,162.44500732421875 -54.915000915527344,171.44000244140625 C26.77400016784668,179.8070068359375 96.29299926757812,157.47900390625 127.29000091552734,135.01600646972656 C158.28700256347656,112.5530014038086 139.52200317382812,92.11900329589844 121.46499633789062,87.54399871826172 C102.08300018310547,82.63300323486328 91.45600128173828,74.91899871826172 92.33899688720703,62.946998596191406 C93.45600128173828,47.79499816894531 115.8949966430664,36.68199920654297 151.21499633789062,34.48699951171875 C190.98599243164062,32.01499938964844 262.04998779296875,17.85099983215332 239.03900146484375,-43.249000549316406 C213.5959930419922,-110.80699920654297 109.11799621582031,-149.23500061035156 -7.933000087738037,-132.8679962158203z M116.14700317382812,-23.243999481201172 C116.95700073242188,-9.654999732971191 101.7490005493164,2.4040000438690186 82.19300079345703,3.680999994277954 C62.63100051879883,4.958000183105469 46.119998931884766,-5.004000186920166 45.31800079345703,-18.584999084472656 C44.51499938964844,-32.18000030517578 59.722999572753906,-44.231998443603516 79.27899932861328,-45.516998291015625 C98.83499908447266,-46.801998138427734 115.33699798583984,-36.83100128173828 116.14700317382812,-23.243999481201172z"></path></g><g opacity="0.65" transform="matrix(1,0,0,1,0,0)"><g opacity="0.5" transform="matrix(1,0,0,1,0,0)"><path fill="rgb(229,168,60)" fill-opacity="1" d=" M148.2949981689453,102.69200134277344 C139.88400268554688,97.84100341796875 -187.17300415039062,129.78199768066406 -191.31700134277344,113.80699920654297 C-185.2100067138672,121.16999816894531 165.98199462890625,66.43599700927734 148.2949981689453,102.69200134277344z"></path></g><g opacity="1" transform="matrix(1,0,0,1,0,0)"><path fill="rgb(197,141,47)" fill-opacity="1" d=" M-218.7010040283203,82.97899627685547 C-218.7010040283203,82.97899627685547 26.367000579833984,80.36399841308594 26.367000579833984,80.36399841308594 C18.2810001373291,75.875 -224.6280059814453,109.17400360107422 -218.7010040283203,82.97899627685547z"></path></g><g opacity="0.6" transform="matrix(1,0,0,1,0,0)"><path fill="rgb(203,147,54)" fill-opacity="1" d=" M180.2570037841797,24.368999481201172 C150.2270050048828,21.437000274658203 -92.98899841308594,53.117000579833984 -107.31800079345703,13.190999984741211 C-107.31600189208984,13.175000190734863 180.2570037841797,24.368999481201172 180.2570037841797,24.368999481201172z"></path></g><g opacity="1" transform="matrix(1,0,0,1,0,0)"><path fill="rgb(218,158,51)" fill-opacity="1" d=" M104.24800109863281,41.12300109863281 C50.560001373291016,78.78399658203125 -156.06700134277344,54 -225.6929931640625,69.15499877929688 C-225.69700622558594,69.13899993896484 -232.2169952392578,41.95800018310547 -232.2169952392578,41.95800018310547 C-154.71099853515625,57.40999984741211 24.799999237060547,48.54100036621094 104.24800109863281,41.12300109863281z"></path></g><g opacity="0.6" transform="matrix(1,0,0,1,0,0)"><path fill="rgb(197,139,45)" fill-opacity="1" d=" M52.49800109863281,-37.13199996948242 C61.00299835205078,-14.76200008392334 -261.6409912109375,-10.37399959564209 -196.2899932861328,-42.33599853515625 C-124.89099884033203,-58.805999755859375 -30.05900001525879,-25.604999542236328 52.49800109863281,-37.13199996948242z"></path></g><g opacity="0.6" transform="matrix(1,0,0,1,0,0)"><path fill="rgb(203,147,54)" fill-opacity="1" d=" M247.88400268554688,-41.27799987792969 C272.9010009765625,-11.986000061035156 127.38999938964844,2.756999969482422 116.33000183105469,-38.560001373291016 C161.3820037841797,-39.810001373291016 205.6739959716797,-41.26300048828125 247.88400268554688,-41.27799987792969z"></path></g><g opacity="1" transform="matrix(1,0,0,1,0,0)"><path fill="rgb(221,160,51)" fill-opacity="1" d=" M95.56300354003906,-50.33399963378906 C81.99299621582031,-51.20800018310547 73.16899871826172,-52.08599853515625 55.62099838256836,-40.34299850463867 C-24.986000061035156,-41.970001220703125 -116.47699737548828,-45.027000427246094 -196.29100036621094,-42.36000061035156 C-180.81500244140625,-76.63700103759766 -116.45500183105469,-50.46500015258789 -95.51599884033203,-51.25899887084961 C-84.45899963378906,-47.97999954223633 84.13400268554688,-65.4219970703125 95.56300354003906,-50.33399963378906z"></path></g><g opacity="0.5" transform="matrix(1,0,0,1,0,0)"><path fill="rgb(203,147,54)" fill-opacity="1" d=" M142.50599670410156,114.66899871826172 C135.17799377441406,139.0290069580078 -129.95399475097656,142.59100341796875 -144.94500732421875,138.88400268554688 C-162.1490020751953,132.25999450683594 145.8249969482422,116.88999938964844 142.50599670410156,114.66899871826172z"></path></g><g opacity="1" transform="matrix(1,0,0,1,0,0)"><path fill="rgb(203,147,54)" fill-opacity="1" d=" M148.23399353027344,-62.7599983215332 C127.71299743652344,-64.37799835205078 -71.2239990234375,-59.16299819946289 -83.58999633789062,-73.70800018310547 C-95.84400177001953,-69.4219970703125 235.75100708007812,-77.90799713134766 148.23399353027344,-62.7599983215332z"></path></g><g opacity="1" transform="matrix(1,0,0,1,0,0)"><path fill="rgb(195,139,47)" fill-opacity="1" d=" M-225.93899536132812,25.774999618530273 C-225.93899536132812,25.774999618530273 -96.53800201416016,23.756999969482422 -96.53800201416016,23.756999969482422 C-102.74700164794922,27.65399932861328 -233.57200622558594,3.4100000858306885 -225.93899536132812,25.774999618530273z"></path></g><g opacity="0.6" transform="matrix(1,0,0,1,0,0)"><path fill="rgb(203,147,54)" fill-opacity="1" d=" M216.68099975585938,-87.69000244140625 C147.42100524902344,-73.63899993896484 -74.40799713134766,-94.43299865722656 -143.08799743652344,-85.3010025024414 C-135.50900268554688,-98.84500122070312 208.29100036621094,-104.63999938964844 216.68099975585938,-87.69000244140625z"></path></g><g opacity="1" transform="matrix(1,0,0,1,0,0)"><path fill="rgb(212,154,58)" fill-opacity="1" d=" M242.41600036621094,-3.921999931335449 C147.08099365234375,35.19300079345703 -119.1050033569336,-21.621000289916992 -222.01199340820312,-6.285999774932861 C-111.2750015258789,-35.0989990234375 113.2229995727539,4.239999771118164 242.41600036621094,-3.921999931335449z"></path></g></g><g opacity="0.5" transform="matrix(1,0,0,1,0,0)"><path fill="rgb(252,195,68)" fill-opacity="1" d=" M124.20700073242188,-35.39099884033203 C124.70899963378906,-27.326000213623047 121.38300323486328,-24.479000091552734 119.5790023803711,-29.652000427246094 C106.06099700927734,-68.40899658203125 51.099998474121094,-52.073001861572266 47.369998931884766,-25.143999099731445 C46.3849983215332,-18.031999588012695 41.80400085449219,-19.049999237060547 41.178001403808594,-29.014999389648438 C40.20100021362305,-44.75 56.888999938964844,-60.930999755859375 80.73100280761719,-62.41999816894531 C104.5790023803711,-63.902000427246094 123.2300033569336,-51.125999450683594 124.20700073242188,-35.39099884033203z"></path></g><g opacity="1" transform="matrix(1,0,0,1,0,0)"><g opacity="0.5" transform="matrix(1,0,0,1,0,0)"><path fill="rgb(255,200,90)" fill-opacity="1" d=" M244.86700439453125,-49.013999938964844 C254.9929962158203,-23.492000579833984 247.2550048828125,-6.434000015258789 231.9239959716797,4.9079999923706055 C239.74099731445312,-5.484000205993652 242.1009979248047,-19.30299949645996 234.85800170898438,-37.63800048828125 C210.00799560546875,-100.552001953125 107.40899658203125,-136.10800170898438 -7.671999931335449,-120.572998046875 C-116.98799896240234,-105.8030014038086 -232.0500030517578,-26.325000762939453 -225.9669952392578,49.67499923706055 C-224.4770050048828,68.18399810791016 -217.9010009765625,84.23999786376953 -207.42100524902344,98.00900268554688 C-221.86900329589844,82.14299774169922 -231.04800415039062,63.02799987792969 -232.91099548339844,40.430999755859375 C-239.41099548339844,-38.486000061035156 -120.26699829101562,-120.70099639892578 -6.920000076293945,-135.7469940185547 C112.41400146484375,-151.5780029296875 218.92799377441406,-114.39700317382812 244.86700439453125,-49.013999938964844z"></path></g><g opacity="1" transform="matrix(1,0,0,1,0,0)"><path fill="rgb(254,219,121)" fill-opacity="1" d=" M123.39199829101562,80.1719970703125 C141.8000030517578,84.60399627685547 162.54100036621094,101.77300262451172 130.94000244140625,123.51300048828125 C99.33899688720703,145.2530059814453 28.46500015258789,166.86199951171875 -54.81700134277344,158.76400756835938 C-74.25800323486328,156.87100219726562 -93.36799621582031,153.66900634765625 -111.43000030517578,149.06199645996094 C-109.08000183105469,149.2949981689453 27.891000747680664,168.12399291992188 108.48500061035156,124.02100372314453 C158.22799682617188,96.8010025024414 134.83200073242188,84.83300018310547 123.39199829101562,80.1719970703125z"></path></g><g opacity="1" transform="matrix(1,0,0,1,0,0)"><path fill="rgb(254,219,121)" fill-opacity="1" d=" M236.11000061035156,-65.73300170898438 C239.6280059814453,-60.39899826049805 242.5659942626953,-54.808998107910156 244.86700439453125,-49.013999938964844 C268.32598876953125,10.119000434875488 195.8769989013672,23.82699966430664 155.33099365234375,26.219999313354492 C132.86300659179688,27.558000564575195 103.48100280761719,36.90999984741211 103.48100280761719,36.90999984741211 C103.48100280761719,36.90999984741211 109.78900146484375,23.94300079345703 160.8000030517578,17.711999893188477 C211.50799560546875,11.517999649047852 265.8590087890625,-10.121000289916992 236.11000061035156,-65.73300170898438z"></path></g></g><g opacity="1" transform="matrix(0.9978799819946289,0,0,1,0,0)"><path stroke-linecap="round" stroke-linejoin="round" fill-opacity="0" stroke="rgb(145,82,6)" stroke-opacity="1" stroke-width="8" d=" M-6.920000076293945,-135.7469940185547 C-120.26699829101562,-120.70099639892578 -234.00999450683594,-41.01900100708008 -232.91099548339844,40.430999755859375 C-231.9219970703125,113.76000213623047 -144.35299682617188,150.05999755859375 -54.81700134277344,158.76400756835938 C28.46500015258789,166.86199951171875 99.33899688720703,145.2530059814453 130.94000244140625,123.51300048828125 C162.54100036621094,101.77300262451172 143.40899658203125,82 125.0009994506836,77.56900024414062 C105.24099731445312,72.81600189208984 94.39800262451172,65.3499984741211 95.30699920654297,53.763999938964844 C96.44599914550781,39.0989990234375 119.322998046875,28.356000900268555 155.33099365234375,26.219999313354492 C195.8769989013672,23.82699966430664 268.32598876953125,10.119000434875488 244.86700439453125,-49.013999938964844 C218.92799377441406,-114.39700317382812 112.41400146484375,-151.5780029296875 -6.920000076293945,-135.7469940185547z M119.5790023803711,-29.652000427246094 C120.40499877929688,-16.500999450683594 104.9010009765625,-4.8379998207092285 84.96399688720703,-3.5940001010894775 C65.02100372314453,-2.3580000400543213 48.189998626708984,-12 47.369998931884766,-25.143999099731445 C46.551998138427734,-38.301998138427734 62.055999755859375,-49.9640007019043 81.99299621582031,-51.20800018310547 C101.93000030517578,-52.45199966430664 118.76699829101562,-42.801998138427734 119.5790023803711,-29.652000427246094z"></path></g></g></g><g style="display: none;"><g><path stroke-linecap="round" stroke-linejoin="round" fill-opacity="0"></path></g></g><g style="display: block;" transform="matrix(0.733349084854126,0.6039031744003296,-0.6039031744003296,0.733349084854126,258.49090576171875,244.37313842773438)" opacity="1"><g opacity="0.2" transform="matrix(1,0,0,1,0,0)"><path fill="rgb(91,0,28)" fill-opacity="1" d=" M119.90499877929688,-73.30799865722656 C111.86900329589844,-63.2869987487793 118.55799865722656,-52.900001525878906 138.41700744628906,-49.24700164794922 C148.5449981689453,-47.38399887084961 152.45599365234375,-34.52000045776367 165.6439971923828,-29.860000610351562 C183.30999755859375,-23.618000030517578 236.06300354003906,-47.2859992980957 221.58999633789062,-67.29399871826172 C204.86000061035156,-90.4229965209961 136.14599609375,-93.56199645996094 119.90499877929688,-73.30799865722656z"></path></g><g opacity="1" transform="matrix(1,0,0,1,0,0)"><path fill="rgb(255,46,46)" fill-opacity="1" d=" M125.28399658203125,-75.13200378417969 C117.90599822998047,-68.41799926757812 122.25599670410156,-60.944000244140625 142.11500549316406,-57.29100036621094 C152.2429962158203,-55.428001403808594 155.51300048828125,-44.24100112915039 168.84500122070312,-40.0099983215332 C191.39100646972656,-32.85499954223633 199.76499938964844,-47.361000061035156 204.98199462890625,-49.367000579833984 C210.19900512695312,-51.374000549316406 231.01199340820312,-61.95000076293945 212.9810028076172,-75.76899719238281 C202.4290008544922,-83.85600280761719 186.8489990234375,-88.06199645996094 171.2729949951172,-88.48300170898438 C153.40499877929688,-88.96600341796875 135.54200744628906,-84.46800231933594 125.28399658203125,-75.13200378417969z"></path><path stroke-linecap="round" stroke-linejoin="round" fill-opacity="0" stroke="rgb(211,0,46)" stroke-opacity="1" stroke-width="8" d=" M125.28399658203125,-75.13200378417969 C117.90599822998047,-68.41799926757812 122.25599670410156,-60.944000244140625 142.11500549316406,-57.29100036621094 C152.2429962158203,-55.428001403808594 155.51300048828125,-44.24100112915039 168.84500122070312,-40.0099983215332 C191.39100646972656,-32.85499954223633 199.76499938964844,-47.361000061035156 204.98199462890625,-49.367000579833984 C210.19900512695312,-51.374000549316406 231.01199340820312,-61.95000076293945 212.9810028076172,-75.76899719238281 C202.4290008544922,-83.85600280761719 186.8489990234375,-88.06199645996094 171.2729949951172,-88.48300170898438 C153.40499877929688,-88.96600341796875 135.54200744628906,-84.46800231933594 125.28399658203125,-75.13200378417969z"></path></g><g opacity="1" transform="matrix(1,0,0,1,0,0)"><path stroke-linecap="round" stroke-linejoin="round" fill-opacity="0" stroke="rgb(163,2,44)" stroke-opacity="1" stroke-width="8" d=" M125.28399658203125,-75.13200378417969 C117.90599822998047,-68.41799926757812 122.25599670410156,-60.944000244140625 142.11500549316406,-57.29100036621094 C152.2429962158203,-55.428001403808594 155.51300048828125,-44.24100112915039 168.84500122070312,-40.0099983215332 C191.39100646972656,-32.85499954223633 199.76499938964844,-47.361000061035156 204.98199462890625,-49.367000579833984 C208.1230010986328,-50.57500076293945 216.91400146484375,-54.888999938964844 219.48199462890625,-61.145999908447266"></path></g><g opacity="1" transform="matrix(1,0,0,1,0,0)"><path fill="rgb(255,77,77)" fill-opacity="1" d=" M168.0590057373047,-57.840999603271484 C150.2790069580078,-71.26799774169922 137.19900512695312,-67.31199645996094 135.6820068359375,-74.23500061035156 C134.1649932861328,-81.15799713134766 172.51600646972656,-91.78199768066406 203.78900146484375,-76.93399810791016 C211.4969940185547,-72.37799835205078 212.75799560546875,-67.78299713134766 201.91400146484375,-62.345001220703125 C191.07000732421875,-56.90700149536133 175.82200622558594,-51.97800064086914 168.0590057373047,-57.840999603271484z"></path></g><g opacity="0.3" transform="matrix(1,0,0,1,0,0)"><path fill="rgb(255,255,255)" fill-opacity="1" d=" M157.7480010986328,-80.21800231933594 C156.2310028076172,-79.01699829101562 163.6929931640625,-78.32599639892578 175.802001953125,-67.63899993896484 C183.46400451660156,-60.87699890136719 197.56300354003906,-70.1240005493164 199.47900390625,-73.4000015258789 C201.39500427246094,-76.6760025024414 190.08799743652344,-72.04000091552734 180.36199951171875,-74.51200103759766 C169.86199951171875,-77.18000030517578 161.51499938964844,-83.2020034790039 157.7480010986328,-80.21800231933594z"></path></g></g><g style="display: none;"><g><path stroke-linecap="round" stroke-linejoin="round" fill-opacity="0"></path></g></g><g style="display: none;"><g><path stroke-linecap="round" stroke-linejoin="round" fill-opacity="0"></path></g></g><g style="display: block;" transform="matrix(0.733349084854126,0.6039031744003296,-0.6039031744003296,0.733349084854126,258.4900207519531,244.37379455566406)" opacity="1"><g opacity="0.2" transform="matrix(1,0,0,1,0,0)"><path fill="rgb(142,84,0)" fill-opacity="1" d=" M16.6299991607666,-75.71099853515625 C16.649999618530273,-79.8219985961914 -10.467000007629395,-79.18800354003906 -10.246999740600586,-92.62100219726562 C-10.109000205993652,-101.07599639892578 51.12300109863281,-119.01699829101562 73.4260025024414,-109.0510025024414 C95.46800231933594,-99.20099639892578 88.61599731445312,-84.9530029296875 65.15699768066406,-73.58699798583984 C42.933998107910156,-62.81999969482422 16.533000946044922,-56.29899978637695 16.6299991607666,-75.71099853515625z"></path></g><g opacity="1" transform="matrix(1,0,0,1,0,0)"><path fill="rgb(255,213,34)" fill-opacity="1" d=" M20.225000381469727,-86.23300170898438 C20.246000289916992,-90.34400177001953 -6.497000217437744,-84.18599700927734 -6.2769999504089355,-97.61900329589844 C-6.138999938964844,-106.0739974975586 6.98799991607666,-113.29199981689453 21.291000366210938,-116.37000274658203 C29.597999572753906,-118.15799713134766 54.097999572753906,-130.28199768066406 76.4010009765625,-120.31600189208984 C98.44300079345703,-110.46600341796875 92.21199798583984,-95.4739990234375 68.75299835205078,-84.10800170898438 C46.529998779296875,-73.34100341796875 20.128000259399414,-66.82099914550781 20.225000381469727,-86.23300170898438z"></path><path stroke-linecap="round" stroke-linejoin="round" fill-opacity="0" stroke="rgb(249,199,31)" stroke-opacity="1" stroke-width="8" d=" M20.225000381469727,-86.23300170898438 C20.246000289916992,-90.34400177001953 -6.497000217437744,-84.18599700927734 -6.2769999504089355,-97.61900329589844 C-6.138999938964844,-106.0739974975586 6.98799991607666,-113.29199981689453 21.291000366210938,-116.37000274658203 C29.597999572753906,-118.15799713134766 54.097999572753906,-130.28199768066406 76.4010009765625,-120.31600189208984 C98.44300079345703,-110.46600341796875 92.21199798583984,-95.4739990234375 68.75299835205078,-84.10800170898438 C46.529998779296875,-73.34100341796875 20.128000259399414,-66.82099914550781 20.225000381469727,-86.23300170898438z"></path></g><g opacity="1" transform="matrix(1,0,0,1,0,0)"><path stroke-linecap="round" stroke-linejoin="round" fill-opacity="0" stroke="rgb(226,146,5)" stroke-opacity="1" stroke-width="8" d=" M87.29399871826172,-97.96199798583984 C83.92500305175781,-93.14199829101562 77.55000305175781,-88.37000274658203 68.75299835205078,-84.10800170898438 C46.529998779296875,-73.34100341796875 20.128000259399414,-66.82099914550781 20.225000381469727,-86.23300170898438 C20.246000289916992,-90.34400177001953 -6.497000217437744,-84.18599700927734 -6.2769999504089355,-97.61900329589844"></path></g><g opacity="1" transform="matrix(1,0,0,1,0,0)"><path fill="rgb(247,232,57)" fill-opacity="1" d=" M3.437000036239624,-104.55799865722656 C4.553999900817871,-108.3550033569336 23.211000442504883,-112.0999984741211 27.371000289916992,-113.94300079345703 C31.5310001373291,-115.78600311279297 61.165000915527344,-126.51100158691406 78.64900207519531,-114.72599792480469 C84.09300231933594,-111.12799835205078 88.3759994506836,-103.10399627685547 53.00299835205078,-90.947998046875 C37.95100021362305,-85.65399932861328 34.82899856567383,-89.23400115966797 29.32900047302246,-92.2969970703125 C23.82900047302246,-95.36000061035156 1.277999997138977,-97.21900177001953 3.437000036239624,-104.55799865722656z"></path></g><g opacity="0.4" transform="matrix(1,0,0,1,0,0)"><path fill="rgb(255,255,255)" fill-opacity="1" d=" M6.695000171661377,-104.34500122070312 C9.883999824523926,-102.81600189208984 19.725000381469727,-105.1969985961914 24.111000061035156,-101.99600219726562 C28.496999740600586,-98.79499816894531 31.43899917602539,-89.14299774169922 46.18199920654297,-94.27200317382812 C60.92499923706055,-99.4010009765625 38.77799987792969,-97.8759994506836 34.856998443603516,-101.86599731445312 C23.06599998474121,-113.86399841308594 4.499000072479248,-105.39800262451172 6.695000171661377,-104.34500122070312z"></path></g></g><g style="display: none;"><g><path stroke-linecap="round" stroke-linejoin="round" fill-opacity="0"></path></g></g><g style="display: none;"><g><path stroke-linecap="round" stroke-linejoin="round" fill-opacity="0"></path></g></g><g style="display: block;" transform="matrix(0.733349084854126,0.6039031744003296,-0.6039031744003296,0.733349084854126,258.4894104003906,244.37567138671875)" opacity="1"><g opacity="0.2" transform="matrix(1,0,0,1,0,0)"><path fill="rgb(25,71,0)" fill-opacity="1" d=" M-129.7480010986328,-37.138999938964844 C-132.15899658203125,-43.79499816894531 -168.3699951171875,-56.29399871826172 -140.47300720214844,-72.31300354003906 C-126.2249984741211,-80.49400329589844 -44.66699981689453,-80.48200225830078 -50.95600128173828,-45.803001403808594 C-52.60599899291992,-36.70500183105469 -61.26900100708008,-27.224000930786133 -81.00199890136719,-19.9060001373291 C-96.21499633789062,-14.265000343322754 -121.95800018310547,-15.633999824523926 -129.7480010986328,-37.138999938964844z"></path></g><g opacity="1" transform="matrix(1,0,0,1,0,0)"><path fill="rgb(58,193,20)" fill-opacity="1" d=" M-125.41699981689453,-45.237998962402344 C-127.8280029296875,-51.89400100708008 -141.1840057373047,-51.862998962402344 -142.07000732421875,-61.91699981689453 C-143.1280059814453,-73.9219970703125 -125.87000274658203,-81.30000305175781 -111.34700012207031,-83.36199951171875 C-95.08100128173828,-85.6709976196289 -83.89099884033203,-94.39700317382812 -67.71099853515625,-93.27400207519531 C-56.01300048828125,-92.46199798583984 -45.85100173950195,-83.80599975585938 -51.25,-70.77899932861328 C-53.191001892089844,-66.09500122070312 -50.0359992980957,-61.35100173950195 -52.03900146484375,-53.91600036621094 C-54.82099914550781,-43.59199905395508 -66.1520004272461,-34.21900177001953 -79.26799774169922,-29.951000213623047 C-94.6969985961914,-24.93000030517578 -117.62699890136719,-23.732999801635742 -125.41699981689453,-45.237998962402344z"></path><path stroke-linecap="round" stroke-linejoin="round" fill-opacity="0" stroke="rgb(49,150,24)" stroke-opacity="1" stroke-width="8" d=" M-125.41699981689453,-45.237998962402344 C-127.8280029296875,-51.89400100708008 -141.1840057373047,-51.862998962402344 -142.07000732421875,-61.91699981689453 C-143.1280059814453,-73.9219970703125 -125.87000274658203,-81.30000305175781 -111.34700012207031,-83.36199951171875 C-95.08100128173828,-85.6709976196289 -83.89099884033203,-94.39700317382812 -67.71099853515625,-93.27400207519531 C-56.01300048828125,-92.46199798583984 -45.85100173950195,-83.80599975585938 -51.25,-70.77899932861328 C-53.191001892089844,-66.09500122070312 -50.0359992980957,-61.35100173950195 -52.03900146484375,-53.91600036621094 C-54.82099914550781,-43.59199905395508 -66.1520004272461,-34.21900177001953 -79.26799774169922,-29.951000213623047 C-94.6969985961914,-24.93000030517578 -117.62699890136719,-23.732999801635742 -125.41699981689453,-45.237998962402344z"></path></g><g opacity="1" transform="matrix(1,0,0,1,0,0)"><g opacity="1" transform="matrix(1,0,0,1,0,0)"><path fill="rgb(75,214,41)" fill-opacity="1" d=" M-124.3239974975586,-75.66500091552734 C-139.78199768066406,-67.69000244140625 -133.97000122070312,-62.3849983215332 -121.83699798583984,-59.93199920654297 C-112.9280014038086,-58.13100051879883 -117.72799682617188,-46.58599853515625 -98.53600311279297,-46.46099853515625 C-84.68599700927734,-46.37099838256836 -65.76300048828125,-54.22700119018555 -64.54399871826172,-65.197998046875 C-63.21900177001953,-77.1240005493164 -52.547000885009766,-80.31099700927734 -64.28199768066406,-88.12200164794922 C-72.0989990234375,-91.63800048828125 -87.0510025024414,-85.28099822998047 -100.04399871826172,-81.81500244140625 C-111.2770004272461,-78.81900024414062 -121.26399993896484,-77.24400329589844 -124.3239974975586,-75.66500091552734z"></path></g></g><g opacity="1" transform="matrix(1,0,0,1,0,0)"><path stroke-linecap="round" stroke-linejoin="round" fill-opacity="0" stroke="rgb(43,109,8)" stroke-opacity="1" stroke-width="8" d=" M-51.25,-70.77899932861328 C-53.191001892089844,-66.09500122070312 -50.0359992980957,-61.35100173950195 -52.03900146484375,-53.91600036621094 C-54.82099914550781,-43.59199905395508 -66.1520004272461,-34.21900177001953 -79.26799774169922,-29.951000213623047 C-94.6969985961914,-24.93000030517578 -117.62699890136719,-23.732999801635742 -125.41699981689453,-45.237998962402344 C-127.8280029296875,-51.89400100708008 -141.1840057373047,-51.862998962402344 -142.07000732421875,-61.91699981689453"></path></g><g opacity="0.3" transform="matrix(1,0,0,1,0,0)"><path fill="rgb(255,255,255)" fill-opacity="1" d=" M-114.6240005493164,-75.93199920654297 C-108.44599914550781,-76.5979995727539 -108.70099639892578,-68.03900146484375 -100.12999725341797,-71.25199890136719 C-90.86699676513672,-74.7249984741211 -83.9209976196289,-79.28500366210938 -82.03099822998047,-76.1240005493164 C-80.14099884033203,-72.96299743652344 -100.00900268554688,-57.41899871826172 -106.09100341796875,-60.823001861572266 C-112.1729965209961,-64.22699737548828 -114.64700317382812,-71.00199890136719 -117.95800018310547,-70.49500274658203 C-123.61499786376953,-69.62899780273438 -120.802001953125,-75.26599884033203 -114.6240005493164,-75.93199920654297z"></path></g></g><g style="display: none;"><g><path stroke-linecap="round" stroke-linejoin="round" fill-opacity="0"></path></g></g><g style="display: none;"><g><path stroke-linecap="round" stroke-linejoin="round" fill-opacity="0"></path></g></g><g style="display: none;"><g><path stroke-linecap="round" stroke-linejoin="round" fill-opacity="0"></path></g></g><g style="display: block;" transform="matrix(0.733349084854126,0.6039031744003296,-0.6039031744003296,0.733349084854126,258.489990234375,244.37554931640625)" opacity="1"><g opacity="0.2" transform="matrix(1,0,0,1,0,0)"><path fill="rgb(0,40,119)" fill-opacity="1" d=" M-191.37899780273438,25.21299934387207 C-203.16200256347656,35.09299850463867 -197.98800659179688,48.27799987792969 -182.27099609375,56.775001525878906 C-174.67599487304688,60.88100051879883 -180.51300048828125,78.19100189208984 -154.59500122070312,84.10900115966797 C-140.36700439453125,87.35800170898438 -126.36599731445312,82.30699920654297 -101.07499694824219,71.29900360107422 C-76.12899780273438,60.441001892089844 -57.28900146484375,33.770999908447266 -75.31099700927734,16.475000381469727 C-96.88800048828125,-4.232999801635742 -174.07699584960938,10.706000328063965 -191.37899780273438,25.21299934387207z"></path></g><g opacity="1" transform="matrix(1,0,0,1,0,0)"><path fill="rgb(22,178,219)" fill-opacity="1" d=" M-188.0709991455078,21.86400032043457 C-200.10899353027344,31.95599937438965 -190.95599365234375,42.529998779296875 -177.33399963378906,49.23400115966797 C-169.56399536132812,53.05799865722656 -178.0279998779297,65.56500244140625 -152.13999938964844,72.48200225830078 C-132.21400451660156,77.80599975585938 -117.28500366210938,67.93800354003906 -94.85399627685547,61.691001892089844 C-78.31099700927734,57.08399963378906 -66.78900146484375,48.76900100708008 -76.68099975585938,34.45399856567383 C-79.22200012207031,30.777000427246094 -63.297000885009766,17.93000030517578 -88.24099731445312,10.736000061035156 C-103.36199951171875,6.375 -125.30999755859375,5.580999851226807 -145.2899932861328,7.965000152587891 C-163.2899932861328,10.11299991607666 -179.69400024414062,14.840999603271484 -188.0709991455078,21.86400032043457z"></path><path stroke-linecap="round" stroke-linejoin="round" fill-opacity="0" stroke="rgb(12,125,193)" stroke-opacity="1" stroke-width="8" d=" M-188.0709991455078,21.86400032043457 C-200.10899353027344,31.95599937438965 -190.95599365234375,42.529998779296875 -177.33399963378906,49.23400115966797 C-169.56399536132812,53.05799865722656 -178.0279998779297,65.56500244140625 -152.13999938964844,72.48200225830078 C-132.21400451660156,77.80599975585938 -117.28500366210938,67.93800354003906 -94.85399627685547,61.691001892089844 C-78.31099700927734,57.08399963378906 -66.78900146484375,48.76900100708008 -76.68099975585938,34.45399856567383 C-79.22200012207031,30.777000427246094 -63.297000885009766,17.93000030517578 -88.24099731445312,10.736000061035156 C-103.36199951171875,6.375 -125.30999755859375,5.580999851226807 -145.2899932861328,7.965000152587891 C-163.2899932861328,10.11299991607666 -179.69400024414062,14.840999603271484 -188.0709991455078,21.86400032043457z"></path></g><g opacity="1" transform="matrix(1,0,0,1,0,0)"><g opacity="1" transform="matrix(1,0,0,1,0,0)"><path fill="rgb(36,209,227)" fill-opacity="1" d=" M-165.33999633789062,39.65399932861328 C-150.03500366210938,46.106998443603516 -158.218994140625,59.38800048828125 -126.23100280761719,53.45000076293945 C-100.74400329589844,48.71900177001953 -82.7020034790039,45.060001373291016 -94.02400207519531,31.492000579833984 C-98.88300323486328,25.670000076293945 -88.40299987792969,22.017000198364258 -89.04199981689453,14.531999588012695 C-102.49400329589844,10.701000213623047 -121.31999969482422,9.86299991607666 -139.35000610351562,11.526000022888184 C-153.177001953125,12.800999641418457 -166.53599548339844,15.54699993133545 -176.64500427246094,19.541000366210938 C-179.68099975585938,26.95800018310547 -177.13699340820312,34.6870002746582 -165.33999633789062,39.65399932861328z"></path></g></g><g opacity="1" transform="matrix(1,0,0,1,0,0)"><path stroke-linecap="round" stroke-linejoin="round" fill-opacity="0" stroke="rgb(9,80,148)" stroke-opacity="1" stroke-width="8" d=" M-188.0709991455078,21.86400032043457 C-200.10899353027344,31.95599937438965 -190.95599365234375,42.529998779296875 -177.33399963378906,49.23400115966797 C-169.56399536132812,53.05799865722656 -178.0279998779297,65.56500244140625 -152.13999938964844,72.48200225830078 C-132.21400451660156,77.80599975585938 -117.28500366210938,67.93800354003906 -94.85399627685547,61.691001892089844 C-78.31099700927734,57.08399963378906 -66.78900146484375,48.76900100708008 -76.68099975585938,34.45399856567383"></path></g><g opacity="0.33" transform="matrix(1,0,0,1,0,0)"><path fill="rgb(255,255,255)" fill-opacity="1" d=" M-157.20700073242188,23.635000228881836 C-156.60400390625,26.538000106811523 -143.66000366210938,23.47100067138672 -131.7729949951172,23.625999450683594 C-112.41500091552734,23.878000259399414 -104.26899719238281,24.09000015258789 -106.09300231933594,19.961000442504883 C-108.40499877929688,14.72599983215332 -158.71200561523438,16.392000198364258 -157.20700073242188,23.635000228881836z"></path></g></g><g style="display: none;"><g><path stroke-linecap="round" stroke-linejoin="round" fill-opacity="0"></path></g></g><g style="display: none;"><g><path stroke-linecap="round" stroke-linejoin="round" fill-opacity="0"></path></g></g><g style="display: block;" transform="matrix(0.733349084854126,0.6039031744003296,-0.6039031744003296,0.733349084854126,258.49102783203125,244.37413024902344)" opacity="1"><g opacity="0.2" transform="matrix(1,0,0,1,0,0)"><path fill="rgb(38,4,104)" fill-opacity="1" d=" M86.38700103759766,84.52300262451172 C79.21900177001953,60.71500015258789 -24.336000442504883,61.25199890136719 -40.41699981689453,77.28500366210938 C-60.58000183105469,97.38899993896484 -33.95800018310547,136.79100036621094 -10.217000007629395,141.6909942626953 C13.947999954223633,146.67799377441406 37.19900131225586,137.6580047607422 45.025001525878906,126.31199645996094 C51.62200164794922,116.74700164794922 51.64799880981445,114.75800323486328 69.32499694824219,105.19000244140625 C82.072998046875,98.29000091552734 88.46900177001953,91.43900299072266 86.38700103759766,84.52300262451172z"></path></g><g opacity="1" transform="matrix(1,0,0,1,0,0)"><path fill="rgb(157,32,239)" fill-opacity="1" d=" M81.1510009765625,76.85600280761719 C78.35299682617188,64.65499877929688 68.65299987792969,69.53099822998047 52.32400131225586,61.24300003051758 C34.90700149536133,52.40299987792969 16.854999542236328,56.28900146484375 2.624000072479248,63.04399871826172 C-9.571999549865723,68.83300018310547 -21.652000427246094,60.314998626708984 -37.733001708984375,76.3479995727539 C-57.895999908447266,96.4520034790039 -35.500999450683594,106.64700317382812 -32.28499984741211,109.86000061035156 C-29.069000244140625,113.072998046875 -34.172000885009766,127.51499938964844 -10.29800033569336,131.71600341796875 C13.576000213623047,135.91700744628906 37.73899841308594,128.4250030517578 45.564998626708984,117.0790023803711 C52.1619987487793,107.51399993896484 46.41299819946289,107.09200286865234 64.08999633789062,97.52400207519531 C76.83799743652344,90.6240005493164 82.76499938964844,83.89600372314453 81.1510009765625,76.85600280761719z"></path><path stroke-linecap="round" stroke-linejoin="round" fill-opacity="0" stroke="rgb(94,24,168)" stroke-opacity="1" stroke-width="8" d=" M81.1510009765625,76.85600280761719 C78.35299682617188,64.65499877929688 68.65299987792969,69.53099822998047 52.32400131225586,61.24300003051758 C34.90700149536133,52.40299987792969 16.854999542236328,56.28900146484375 2.624000072479248,63.04399871826172 C-9.571999549865723,68.83300018310547 -21.652000427246094,60.314998626708984 -37.733001708984375,76.3479995727539 C-57.895999908447266,96.4520034790039 -35.500999450683594,106.64700317382812 -32.28499984741211,109.86000061035156 C-29.069000244140625,113.072998046875 -34.172000885009766,127.51499938964844 -10.29800033569336,131.71600341796875 C13.576000213623047,135.91700744628906 37.73899841308594,128.4250030517578 45.564998626708984,117.0790023803711 C52.1619987487793,107.51399993896484 46.41299819946289,107.09200286865234 64.08999633789062,97.52400207519531 C76.83799743652344,90.6240005493164 82.76499938964844,83.89600372314453 81.1510009765625,76.85600280761719z"></path></g><g opacity="1" transform="matrix(1,0,0,1,0,0)"><path stroke-linecap="round" stroke-linejoin="round" fill-opacity="0" stroke="rgb(53,4,130)" stroke-opacity="1" stroke-width="8" d=" M-37.733001708984375,76.3479995727539 C-57.895999908447266,96.4520034790039 -35.500999450683594,106.64700317382812 -32.28499984741211,109.86000061035156 C-29.069000244140625,113.072998046875 -34.172000885009766,127.51499938964844 -10.29800033569336,131.71600341796875 C13.576000213623047,135.91700744628906 37.73899841308594,128.4250030517578 45.564998626708984,117.0790023803711 C52.1619987487793,107.51399993896484 46.41299819946289,107.09200286865234 64.08999633789062,97.52400207519531 C76.83799743652344,90.6240005493164 82.76499938964844,83.89600372314453 81.1510009765625,76.85600280761719"></path></g><g opacity="1" transform="matrix(1,0,0,1,0,0)"><path fill="rgb(180,67,232)" fill-opacity="1" d=" M25.97800064086914,106.4280014038086 C44.99800109863281,90.20099639892578 37.11199951171875,88.75 60.07899856567383,80.44000244140625 C70.73100280761719,73.27300262451172 43.05799865722656,57.95800018310547 26.628000259399414,60.37900161743164 C10.197999954223633,62.79999923706055 3.8510000705718994,67.68199920654297 -5.382999897003174,68.3219985961914 C-14.616999626159668,68.96199798583984 -52.494998931884766,85.99400329589844 -21.70199966430664,100.63800048828125 C-11.604000091552734,105.44000244140625 6.958000183105469,122.65499877929688 25.97800064086914,106.4280014038086z"></path></g><g opacity="0.3" transform="matrix(1,0,0,1,0,0)"><path fill="rgb(255,255,255)" fill-opacity="1" d=" M9.0600004196167,73.35700225830078 C3.684000015258789,72.93099975585938 -2.4240000247955322,77.56500244140625 -11.272000312805176,75.6780014038086 C-20.1200008392334,73.79100036621094 -31.240999221801758,83.59500122070312 -31.871000289916992,88.51200103759766 C-32.72700119018555,95.1989974975586 -19.084999084472656,82.1240005493164 4.458000183105469,79.65499877929688 C12.133999824523926,78.8499984741211 12.906999588012695,73.66200256347656 9.0600004196167,73.35700225830078z"></path></g></g></g></svg>