<svg
  xmlns="http://www.w3.org/2000/svg"
  width="512"
  height="512"
  style="width: 100%; height: 100%; transform: translate3d(0, 0, 0)"
>
  <defs>
    <linearGradient
      id="c"
      spreadMethod="pad"
      gradientUnits="userSpaceOnUse"
      x1="-226.606"
      y1="6.083"
      x2="157.736"
      y2="-2.757"
    >
      <stop offset="0%" stop-color="#D39927" />
      <stop offset="50%" stop-color="#DFA539" />
      <stop offset="100%" stop-color="#EBB14A" />
    </linearGradient>
    <linearGradient
      id="b"
      spreadMethod="pad"
      gradientUnits="userSpaceOnUse"
      x1="-159.597"
      y1="10.774"
      x2="195.214"
      y2="56.734"
    >
      <stop offset="0%" stop-color="#AA6427" />
      <stop offset="14%" stop-color="#AD6C30" />
      <stop offset="28%" stop-color="#B1753A" />
      <stop offset="36%" stop-color="#814F1E" />
      <stop offset="57%" stop-color="#512802" />
      <stop offset="72%" stop-color="#6D4621" />
      <stop offset="100%" stop-color="#896441" />
    </linearGradient>
    <clipPath id="a">
      <path d="M0 0h512v512H0z" />
    </clipPath>
  </defs>
  <g clip-path="url(#a)">
    <g style="display: block">
      <path
        fill="url(#b)"
        d="M-3.31-128.333c-113.347 15.046-241.283 96.631-225.409 177.649 11.01 56.196 88.803 106.811 178.339 115.515 83.282 8.098 149.844-10.872 181.445-32.612 31.601-21.74 29.967-42.036 7.355-61.994-15.237-13.449-40.999-.884-40.09-12.47 1.139-14.665 28.297-27.695 64.305-29.831 40.546-2.392 100.62-6.678 88.448-74.974-12.342-69.25-135.059-97.114-254.393-81.283zm126.5 106.095c.826 13.151-14.679 24.814-34.616 26.058C68.631 5.056 51.8-4.586 50.98-17.73c-.818-13.158 14.686-24.82 34.623-26.064 19.937-1.244 36.775 8.406 37.587 21.556z"
        transform="rotate(40 -225.658 470.31) scale(.95)"
      />
      <path
        stroke-linecap="round"
        stroke-linejoin="round"
        stroke="#381305"
        stroke-width="7.6"
        d="M325.473 159.667c-91.675-58.265-234.6-77.016-272.52-8.363-26.304 47.62-.599 131.959 59.245 192.968 55.663 56.75 115.687 83.59 151.96 87.066 36.273 3.476 47.478-12.292 43.21-40.625-2.877-19.091-29.298-25.679-21.561-33.555 9.784-9.977 37.505-2.876 65.013 17.558 30.968 23.019 77.304 56.584 110.15-.551 33.306-57.933-38.985-153.148-135.497-214.498zm27.273 154.457c-7.43 10.075-25.835 9.095-41.104-2.175-15.268-11.278-21.629-28.573-14.2-38.64 7.44-10.074 25.845-9.094 41.113 2.175 15.27 11.27 21.63 28.574 14.191 38.64z"
        fill="none"
      />
      <path
        fill="#FFF"
        d="M303.67 411.342c-9.61 24.091-39.055 15.312-39.762 15.264l5.922-11.414c1.783.262 25.403-1.539 33.84-3.85zM441.648 391.664c-16.844 16.457-38.833 6.786-39.54 6.738l5.113-9.673c1.783.262 19.696 5.031 34.427 2.935z"
        opacity=".2"
      />
    </g>
    <g style="display: block">
      <path
        fill="url(#c)"
        d="M-6.92-135.747c-113.347 15.046-227.09 94.728-225.991 176.178.989 73.329 88.558 109.629 178.094 118.333 83.282 8.098 154.156-13.511 185.757-35.251S143.409 82 125.001 77.569c-19.76-4.753-30.603-12.219-29.694-23.805 1.139-14.665 24.016-25.408 60.024-27.544 40.546-2.393 112.995-16.101 89.536-75.234-25.939-65.383-132.453-102.564-251.787-86.733zM119.579-29.652c.826 13.151-14.678 24.814-34.615 26.058C65.021-2.358 48.19-12 47.37-25.144c-.818-13.158 14.686-24.82 34.623-26.064 19.937-1.244 36.774 8.406 37.586 21.556z"
        transform="rotate(40 -205.952 476.967) scale(.95)"
      />
      <g opacity=".65">
        <path
          fill="#E5A83C"
          d="M303.617 409.262C300.458 400.595 42.94 224.123 49.68 209.967c-.052 9.088 288.948 183.71 253.937 199.295z"
          opacity=".5"
        />
        <path
          fill="#C58D2F"
          d="M48.576 170.81 228.52 318.558c-3.143-8.205-200.252-132.304-179.943-147.748z"
          opacity="1"
        />
        <path
          fill="#CB9336"
          d="M374.705 371.78C354.64 351.31 158.297 225.844 172.25 188.038c.011-.01 202.455 183.742 202.455 183.742z"
          opacity=".6"
        />
        <path
          fill="#DA9E33"
          d="M309.16 337.558c-62.07-5.377-197.306-149.59-257.23-181.078l11.86-23.776c46.968 58.574 183.022 161.738 245.37 204.854z"
          opacity="1"
        />
        <path
          fill="#C58B2D"
          d="M319.285 249.008C311.814 270.48 74.333 76.652 141.409 93.298c62.017 31.614 110.757 113.685 177.876 155.71z"
          opacity=".6"
        />
        <path
          fill="#CB9336"
          d="M464.007 365.302c.319 36.594-114.578-41.533-97.397-78.355 33.55 26.601 66.67 52.59 97.397 78.355z"
          opacity=".6"
        />
        <path
          fill="#DDA033"
          d="M358.687 265.697c-9.342-8.922-15.228-14.95-35.169-17.12-57.667-50.406-122.382-108.5-182.095-155.297 32.194-15.494 63.05 42.854 78.772 55.062 6.045 9.138 139.388 99.396 138.492 117.355z"
          opacity="1"
        />
        <path
          fill="#CB9336"
          d="M292.09 414.443c-20.208 13.253-215.33-146.057-223.977-157.91-8.475-15.326 225.036 161.553 223.977 157.91z"
          opacity=".5"
        />
        <path
          fill="#CB9336"
          d="M404.606 288.818C390.66 275.109 242.7 157.424 242.583 139.288c-11.535-4.364 234.962 191.948 162.023 149.53z"
          opacity="1"
        />
        <path
          fill="#C38B2F"
          d="m78.24 124.76 95.403 77.55c-6.898-.955-87.3-98.486-95.403-77.55z"
          opacity="1"
        />
        <path
          fill="#CB9336"
          d="M469.64 312.472c-58.983-32.068-207.72-182.66-263.277-217.953 13.786-5.229 267.522 200.495 263.278 217.953z"
          opacity=".6"
        />
        <path
          fill="#D49A3A"
          d="M437.216 389.149c-93.264-29.75-252.286-233.643-336.54-285.323 98.183 46.653 237.537 212.371 336.54 285.323z"
          opacity="1"
        />
      </g>
      <path
        fill="#FCC344"
        d="M370.407 294.064c-4.56 6.175-8.718 6.216-6.872 1.35 13.829-36.46-36.144-58.133-55.303-40.814-5.06 4.575-7.772 1.036-2.142-6.598 8.898-12.048 30.923-13.633 49.183-.157 18.26 13.484 24.032 34.17 15.134 46.219z"
        opacity=".5"
      />
      <path
        fill="#FFC85A"
        d="M466.535 357.83c-8.215 24.757-24.263 32.446-42.346 31.338 12.035-2.79 22.19-11.405 28.116-29.17 20.334-60.96-32.62-149.488-125.855-208.457-88.574-56.005-220.842-68.427-262.825-9.404-10.218 14.38-15.237 30.08-16.018 46.5-.826-20.37 4.167-39.886 16.61-57.468 43.46-61.4 180.37-48.477 272.046 9.789 96.511 61.35 151.322 153.45 130.272 216.872z"
        opacity=".5"
      />
      <path
        fill="#FEDB79"
        d="M299.246 377.666c10.69 14.466 15.3 39.626-20.973 36.15-36.273-3.476-101.047-31.03-156.71-87.778-12.992-13.25-24.943-27.25-35.275-41.632 1.568 1.605 89.75 98.949 175.333 116.068 52.822 10.566 43.104-12.43 37.625-22.808zM470.372 340.316c-.697 6.03-1.972 11.892-3.837 17.514-19.037 57.36-80.132 23.094-111.1.076-17.168-12.746-44.261-23.882-44.261-23.882s12.508-5.585 53.436 21.03c40.685 26.457 93.452 43.9 105.762-14.738z"
      />
      <path
        stroke-linecap="round"
        stroke-linejoin="round"
        stroke="#915206"
        stroke-width="8"
        d="M-6.92-135.747c-113.347 15.046-227.09 94.728-225.991 176.178.989 73.329 88.558 109.629 178.094 118.333 83.282 8.098 154.156-13.511 185.757-35.251S143.409 82 125.001 77.569c-19.76-4.753-30.603-12.219-29.694-23.805 1.139-14.665 24.016-25.408 60.024-27.544 40.546-2.393 112.995-16.101 89.536-75.234-25.939-65.383-132.453-102.564-251.787-86.733zM119.579-29.652c.826 13.151-14.678 24.814-34.615 26.058C65.021-2.358 48.19-12 47.37-25.144c-.818-13.158 14.686-24.82 34.623-26.064 19.937-1.244 36.774 8.406 37.586 21.556z"
        fill="none"
        transform="rotate(40 -205.95 476.97) scale(.94799 .95)"
      />
    </g>
    <g style="display: block">
      <path
        fill="#5B001C"
        d="M390.694 263.024c-11.945 2.496-13.312 14.153-.955 28.824 6.303 7.483 1.402 19.279 8.26 30.66 9.185 15.246 62.165 29.747 63.634 6.334 1.699-27.065-46.797-70.863-70.939-65.818z"
        opacity=".2"
      />
      <path
        fill="#FF2E2E"
        d="M395.74 264.935c-9.465.468-10.788 8.576 1.569 23.248 6.302 7.482 1.945 17.66 9.166 28.815 12.214 18.863 27.115 13.282 32.152 14.961 5.038 1.679 26.688 6.492 21.81-14.531-2.854-12.303-11.74-24.796-22.908-34.511-12.812-11.145-28.628-18.634-41.789-17.982z"
      />
      <path
        stroke-linecap="round"
        stroke-linejoin="round"
        stroke="#D3002E"
        stroke-width="7.6"
        d="M395.74 264.935c-9.465.468-10.788 8.576 1.569 23.248 6.302 7.482 1.945 17.66 9.166 28.815 12.214 18.863 27.115 13.282 32.152 14.961 5.038 1.679 26.688 6.492 21.81-14.531-2.854-12.303-11.74-24.796-22.908-34.511-12.812-11.145-28.628-18.634-41.789-17.982z"
        fill="none"
      />
      <path
        stroke-linecap="round"
        stroke-linejoin="round"
        stroke="#A3022C"
        stroke-width="7.6"
        d="M395.74 264.935c-9.465.468-10.788 8.576 1.569 23.248 6.302 7.482 1.945 17.66 9.166 28.815 12.214 18.863 27.115 13.282 32.152 14.961 3.033 1.011 12.085 3.156 17.747.119"
        fill="none"
      />
      <path
        fill="#FF4D4D"
        d="M416.667 303.447c-4.93-20.584-16.911-25.582-13.843-31.575 3.068-5.993 37.609 9.376 51.576 39.15 2.901 7.997 1.051 12.128-10.185 9.567-11.237-2.56-25.396-8.154-27.548-17.142z"
      />
      <path
        fill="#FFF"
        d="M422.62 280.81c-1.839-.036 3.216 4.978 5.643 20.128 1.535 9.586 17.459 11.319 20.842 10.073 3.384-1.245-7.708-4.674-13.348-12.36-6.089-8.298-8.573-17.755-13.138-17.841z"
        opacity=".3"
      />
    </g>
    <g style="display: block">
      <path
        fill="#8E5400"
        d="M316.408 198.894c2.497-3.003-17.772-18.914-9.498-28.632 5.207-6.117 60.946 17.704 71.283 38.482 10.216 20.534-3.413 26.845-27.48 21.013-22.8-5.524-46.1-16.686-34.305-30.863z"
        opacity=".2"
      />
      <path
        fill="#FFD522"
        d="M325.398 193.349c2.498-3.002-20.832-14.636-12.559-24.355 5.207-6.117 19.193-3.483 31.541 2.898 7.172 3.705 32.46 9.61 42.798 30.387 10.216 20.535-3.407 27.766-27.475 21.934-22.8-5.524-46.099-16.687-34.305-30.864z"
      />
      <path
        stroke-linecap="round"
        stroke-linejoin="round"
        stroke="#F9C71F"
        stroke-width="7.6"
        d="M325.398 193.349c2.498-3.002-20.832-14.636-12.559-24.355 5.207-6.117 19.193-3.483 31.541 2.898 7.172 3.705 32.46 9.61 42.798 30.387 10.216 20.535-3.407 27.766-27.475 21.934-22.8-5.524-46.099-16.687-34.305-30.864z"
        fill="none"
      />
      <path
        stroke-linecap="round"
        stroke-linejoin="round"
        stroke="#E29205"
        stroke-width="7.6"
        d="M381.667 225.25c-5.382 1.5-12.939 1.15-21.964-1.037-22.8-5.524-46.099-16.687-34.305-30.864 2.498-3.002-20.832-14.636-12.559-24.355"
        fill="none"
      />
      <path
        fill="#F7E839"
        d="M324.153 169.772c3.113-2.11 19.056 6.41 23.22 7.571 4.164 1.16 32.373 11.192 38.078 30.393 1.82 5.926.114 14.397-33.167 1.95-14.236-5.208-14.363-9.719-16.547-15.286-2.184-5.568-17.599-20.55-11.584-24.628z"
      />
      <path
        fill="#FFF"
        d="M326.414 171.896c1.415 3.047 10.07 7.244 11.354 12.24 1.283 4.996-2.388 13.851 11.52 18.993 13.91 5.142-3.253-7.114-3.718-12.408-1.402-15.92-20.13-20.924-19.156-18.825z"
        opacity=".4"
      />
    </g>
    <g style="display: block">
      <path
        fill="#194700"
        d="M185.767 138.785c2.252-6.338-16.755-37.372 13.377-32.272 15.389 2.605 75.192 51.867 49.637 73.5-6.704 5.676-18.782 7.397-37.673.847-14.563-5.05-32.615-21.6-25.34-42.075z"
        opacity=".2"
      />
      <path
        fill="#3AC114"
        d="M193.834 135.46c2.252-6.336-7.562-14.38-2.14-22.288 6.474-9.442 23.586-4.43 35.482 2.827 13.323 8.13 26.799 8.489 37.986 19.083 8.088 7.66 10.313 20.145-1.513 26.438-4.252 2.263-4.803 7.647-10.762 11.89-8.275 5.89-22.245 5.922-34.441 1.13-14.347-5.635-31.886-18.604-24.612-39.08z"
      />
      <path
        stroke-linecap="round"
        stroke-linejoin="round"
        stroke="#319618"
        stroke-width="7.6"
        d="M193.834 135.46c2.252-6.336-7.562-14.38-2.14-22.288 6.474-9.442 23.586-4.43 35.482 2.827 13.323 8.13 26.799 8.489 37.986 19.083 8.088 7.66 10.313 20.145-1.513 26.438-4.252 2.263-4.803 7.647-10.762 11.89-8.275 5.89-22.245 5.922-34.441 1.13-14.347-5.635-31.886-18.604-24.612-39.08z"
        fill="none"
      />
      <path
        fill="#4BD629"
        d="M213.01 113.807c-16.151-3.487-15.093 3.914-7.677 13.04 5.446 6.7-5.046 12.269 8.953 23.95 10.103 8.43 28.724 14.097 36.243 6.787 8.174-7.945 17.925-3.838 14.036-16.653-3.609-7.299-18.413-11.666-30.034-16.971-10.047-4.587-18.323-9.463-21.52-10.153z"
      />
      <path
        stroke-linecap="round"
        stroke-linejoin="round"
        stroke="#2B6D08"
        stroke-width="7.6"
        d="M263.649 161.52c-4.252 2.263-4.803 7.647-10.762 11.89-8.275 5.89-22.245 5.922-34.441 1.13-14.347-5.635-31.886-18.604-24.612-39.08 2.252-6.336-7.562-14.38-2.14-22.288"
        fill="none"
      />
      <path
        fill="#FFF"
        d="M220.286 119.47c4.932 3.242-.423 9.364 7.802 12.184 8.89 3.047 16.738 3.898 16.216 7.357-.523 3.46-24.48 2.86-26.885-3.309-2.405-6.169-.128-12.631-2.862-14.259-4.671-2.781.796-5.216 5.729-1.974z"
        opacity=".3"
      />
    </g>
    <g style="display: block">
      <path
        fill="#002877"
        d="M102.916 147.291c-14.607.13-18.776 12.924-12.38 28.646 3.09 7.598-11.645 16.767 3.788 36.76 8.472 10.974 21.79 15.725 46.985 22.926 24.851 7.102 54.774-1.079 52.002-24.646-3.317-28.217-68.946-63.876-90.395-63.686z"
        opacity=".2"
      />
      <path
        fill="#16B2DB"
        d="M107.365 146.833c-14.923.131-14.596 13.413-8.655 26.556 3.388 7.496-10.372 11.557 4.436 32.263 11.398 15.938 28.305 17.717 48.528 26.682 14.913 6.612 28.385 7.472 29.775-9 .357-4.23 19.794-4.035 5.846-24.374-8.455-12.33-24.071-26.167-40.163-36.484-14.498-9.295-29.383-15.735-39.767-15.643z"
      />
      <path
        stroke-linecap="round"
        stroke-linejoin="round"
        stroke="#0C7DC1"
        stroke-width="7.6"
        d="M107.365 146.833c-14.923.131-14.596 13.413-8.655 26.556 3.388 7.496-10.372 11.557 4.436 32.263 11.398 15.938 28.305 17.717 48.528 26.682 14.913 6.612 28.385 7.472 29.775-9 .357-4.23 19.794-4.035 5.846-24.374-8.455-12.33-24.071-26.167-40.163-36.484-14.498-9.295-29.383-15.735-39.767-15.643z"
        fill="none"
      />
      <path
        fill="#24D1E3"
        d="M113.29 173.606c7.328 13.975-6.694 18.773 20.35 33.736 21.548 11.922 36.989 20.134 36.88 3.347-.048-7.204 9.844-3.554 13.895-9.43-7.551-10.932-20.851-22.916-35.078-32.585-10.91-7.415-22.365-13.469-32.19-16.645-6.706 3.606-9.508 10.81-3.856 21.577z"
      />
      <path
        stroke-linecap="round"
        stroke-linejoin="round"
        stroke="#095094"
        stroke-width="7.6"
        d="M107.365 146.833c-14.923.131-14.596 13.413-8.655 26.556 3.388 7.496-10.372 11.557 4.436 32.263 11.398 15.938 28.305 17.717 48.528 26.682 14.913 6.612 28.385 7.472 29.775-9"
        fill="none"
      />
      <path
        fill="#FFF"
        d="M128.93 166.77c-1.312 2.494 10.033 8.061 18.657 15.354 14.044 11.875 19.89 16.95 21.045 12.82 1.466-5.235-36.432-34.394-39.703-28.174z"
        opacity=".33"
      />
    </g>
    <g style="display: block">
      <path
        fill="#260468"
        d="M270.8 358.528c9.12-21.788-67.146-83.931-88.621-81.885-26.928 2.567-31.2 47.54-16.748 65.47 14.71 18.25 37.208 25.677 49.799 22.083 10.614-3.03 11.834-4.474 30.576-.815 13.516 2.638 22.343 1.477 24.993-4.853z"
        opacity=".2"
      />
      <path
        fill="#9D20EF"
        d="M271.59 349.744c5.316-10.638-4.742-12.92-11.712-28.859-7.434-17-23.02-25.053-37.535-28.693-12.44-3.12-16.155-16.662-37.63-14.615-26.928 2.567-16.661 23.567-16.243 27.866.418 4.298-12.046 11.808 2.925 29.306s37.216 26.596 49.807 23.002c10.614-3.03 6.653-6.812 25.394-3.154 13.516 2.639 21.926 1.284 24.993-4.853z"
      />
      <path
        stroke-linecap="round"
        stroke-linejoin="round"
        stroke="#5E18A8"
        stroke-width="7.6"
        d="M271.59 349.744c5.316-10.638-4.742-12.92-11.712-28.859-7.434-17-23.02-25.053-37.535-28.693-12.44-3.12-16.155-16.662-37.63-14.615-26.928 2.567-16.661 23.567-16.243 27.866.418 4.298-12.046 11.808 2.925 29.306s37.216 26.596 49.807 23.002c10.614-3.03 6.653-6.812 25.394-3.154 13.516 2.639 21.926 1.284 24.993-4.853z"
        fill="none"
      />
      <path
        stroke-linecap="round"
        stroke-linejoin="round"
        stroke="#350482"
        stroke-width="7.6"
        d="M184.713 277.577c-26.928 2.567-16.661 23.567-16.243 27.866.418 4.298-12.046 11.808 2.925 29.306s37.216 26.596 49.807 23.002c10.614-3.03 6.653-6.812 25.394-3.154 13.516 2.639 21.926 1.284 24.993-4.853"
        fill="none"
      />
      <path
        fill="#B443E8"
        d="M213.27 338.111c23.748-.414 18.84-6.24 40.702 1.536 12.14 1.176 1.095-26.767-12.416-34.913-13.511-8.147-21.114-8.4-28.272-13.507-7.159-5.107-45.222-15.491-31.484 13.844 4.506 9.62 7.722 33.454 31.47 33.04z"
      />
      <path
        fill="#FFF"
        d="M220.835 303.642c-3.686-3.56-10.963-3.85-16.312-10.577-5.35-6.727-19.426-6.253-22.857-3.028-4.666 4.387 13.234 3.037 31.99 15.444 6.116 4.045 9.816.708 7.179-1.84z"
        opacity=".3"
      />
    </g>
  </g>
</svg>
